<?xml version="1.0" encoding="UTF-8"?><svg xmlns="http://www.w3.org/2000/svg" viewBox="0 0 688.75 241.82"><defs><style>.d,.e{fill:#fff;}.f{fill:#21409a;}.e,.g{fill-rule:evenodd;}.h,.g{fill:#74c044;}.i{fill:#ed1c24;}.j{fill:#58595b;}</style></defs><g id="a"/><g id="b"><g id="c"><g><rect class="j" x="452.72" y="0" width="1.77" height="241.31"/><g><g><path class="g" d="M621.84,164.1c0-3.23-3.72-5.29-10.48-5.29-7.15,0-10.87,1.96-10.87,5.19,0,2.39,1.47,4.01,4.38,4.87h12.39c3.02-.86,4.59-2.48,4.59-4.77Z"/><path class="g" d="M672.81,72.44h-117.59c-8.8,0-15.93,7.22-15.93,16.13v64.18c0,8.9,7.13,16.12,15.93,16.12h32.94c-.53-1.26-.81-2.63-.81-4.09,0-5.29,4.11-9.21,12.05-11.27-3.53-1.08-5.29-2.94-5.29-5.59,0-3.52,2.55-5.78,7.64-6.95-8.03-2.35-11.46-6.2-12.06-13.63-.09-1.16-.11-3.95,.89-6.69,4.01-11.05,24.68-16.85,24.68-16.85l-1.45-2.66,9.96,3.03-1.66,9.04-2.07-2.28c-9.83,3.28-14.81,8.26-16.31,12.16-1.43,3.75-.58,11.49,6.76,11.62,7.35,.12,10.25-5.77,8.05-10.7-2.2-4.94-8.84-4.65-8.84-4.65l9.38-6.43c3.17,.95,5.63,2.34,7.41,3.64,3.56,2.59,5.81,6.68,5.83,11.08v.09c0,8.23-4.9,13.03-14.5,14.7-6.27,1.08-10.19,.1-10.19,3.63,0,3.04,3.92,2.65,12.44,3.72,9.8,1.27,14.89,5.98,14.89,13.33,0,2.14-.41,4.05-1.19,5.75h39.04c8.8,0,15.93-7.22,15.93-16.12V88.57c0-8.91-7.13-16.13-15.93-16.13Z"/></g><path class="d" d="M620.07,149.79c-8.52-1.08-12.44-.68-12.44-3.72,0-3.53,3.92-2.55,10.19-3.63,9.6-1.67,14.5-6.47,14.5-14.7v-.09c-.02-4.4-2.27-8.49-5.83-11.08-1.79-1.3-4.24-2.69-7.41-3.64l-9.38,6.43s6.64-.29,8.84,4.65c2.2,4.94-.7,10.83-8.05,10.7-7.34-.13-8.2-7.87-6.76-11.62,1.49-3.9,6.47-8.88,16.31-12.16l2.07,2.28,1.66-9.04-9.96-3.03,1.45,2.66s-20.66,5.8-24.68,16.85c-.99,2.74-.98,5.53-.89,6.69,.6,7.43,4.02,11.27,12.06,13.63-5.09,1.18-7.64,3.43-7.64,6.95,0,2.65,1.76,4.51,5.29,5.59-7.94,2.06-12.05,5.98-12.05,11.27,0,1.46,.28,2.82,.81,4.09h16.7c-2.92-.85-4.38-2.47-4.38-4.87,0-3.23,3.72-5.19,10.87-5.19,6.76,0,10.48,2.06,10.48,5.29,0,2.29-1.57,3.91-4.59,4.77h16.53c.78-1.7,1.19-3.61,1.19-5.75,0-7.35-5.09-12.05-14.89-13.33Z"/><path class="e" d="M634.16,102.66c1.02,0,2.01,.26,2.97,.78,.97,.52,1.72,1.27,2.26,2.24,.54,.97,.81,1.98,.81,3.04s-.26,2.05-.8,3.01c-.53,.96-1.28,1.71-2.24,2.24-.96,.53-1.96,.8-3.01,.8s-2.05-.27-3.01-.8c-.96-.53-1.71-1.28-2.24-2.24-.53-.96-.8-1.97-.8-3.01s.27-2.06,.81-3.04c.54-.97,1.3-1.72,2.27-2.24,.97-.52,1.96-.78,2.97-.78m4.37,3.52c-.45-.81-1.08-1.43-1.89-1.87-.81-.44-1.63-.65-2.48-.65s-1.68,.22-2.48,.65c-.81,.43-1.43,1.06-1.89,1.87s-.68,1.65-.68,2.53,.23,1.71,.67,2.51c.44,.8,1.07,1.42,1.87,1.87,.8,.45,1.64,.67,2.51,.67s1.71-.22,2.51-.67c.81-.45,1.43-1.07,1.87-1.87,.44-.8,.67-1.63,.67-2.51s-.22-1.72-.68-2.53m-2.41,4.1c.22,.94,.38,1.6,.51,1.86h-.9c-.11-.19-.26-.77-.44-1.62-.2-.93-.57-1.29-1.36-1.32h-.82v2.93h-.87v-6.67c.44-.09,1.09-.15,1.68-.15,.94,0,1.55,.18,1.97,.56,.33,.29,.53,.75,.53,1.29,0,.88-.57,1.48-1.27,1.72v.03c.51,.18,.82,.66,.99,1.37m-.6-3.02c0-.87-.63-1.25-1.55-1.25-.42,0-.72,.04-.87,.08v2.46h.9c.93,0,1.52-.51,1.52-1.29"/><path class="d" d="M543.76,110.5h14.21v5.68c4.61-4.7,9.31-6.56,15.48-6.56,9.8,0,15.38,6.08,15.38,17.54v28.71h-14.31v-26.75c0-6.27-1.86-9.31-6.37-9.31s-7.74,2.94-10.19,7.15v28.9h-14.21v-45.36Z"/><g><path class="h" d="M526.1,91.87c4.78,0,8.47,3.69,8.47,8.47s-3.69,8.47-8.47,8.47-8.47-3.8-8.47-8.47,3.69-8.47,8.47-8.47"/><rect class="h" x="517.63" y="110.34" width="16.65" height="45.89"/></g></g><g><g><rect class="f" x="0" y="219.9" width="3.75" height="21.41"/><polygon class="f" points="8.19 219.9 12.14 219.9 21.92 235.67 21.98 235.67 21.98 219.9 25.55 219.9 25.55 241.31 21.59 241.31 11.84 225.57 11.75 225.57 11.75 241.31 8.19 241.31 8.19 219.9"/><polygon class="f" points="27.95 219.9 45.28 219.9 45.28 223.14 38.47 223.14 38.47 241.31 34.72 241.31 34.72 223.14 27.95 223.14 27.95 219.9"/><polygon class="f" points="47.76 219.9 63.18 219.9 63.18 223.14 51.51 223.14 51.51 228.74 62.31 228.74 62.31 231.8 51.51 231.8 51.51 238.07 63.39 238.07 63.39 241.31 47.76 241.31 47.76 219.9"/><path class="f" d="M66.65,219.9h10.22c2.36,0,4.13,.51,5.31,1.53,1.18,1.02,1.77,2.44,1.77,4.26,0,1.02-.15,1.86-.45,2.53-.3,.67-.65,1.21-1.05,1.62-.4,.41-.8,.71-1.18,.89-.39,.18-.68,.3-.86,.36v.06c.32,.04,.67,.14,1.03,.3,.37,.16,.72,.42,1.04,.76,.32,.35,.59,.81,.8,1.36,.21,.56,.32,1.26,.32,2.1,0,1.26,.09,2.4,.28,3.43,.19,1.03,.49,1.76,.89,2.2h-4.02c-.28-.46-.44-.97-.49-1.53-.05-.56-.08-1.1-.08-1.62,0-.98-.06-1.82-.18-2.53-.12-.71-.34-1.3-.66-1.77-.32-.47-.75-.81-1.3-1.03-.55-.22-1.26-.33-2.11-.33h-5.52v8.82h-3.75v-21.41Zm3.75,9.74h6.14c1.2,0,2.11-.28,2.73-.86,.62-.57,.93-1.42,.93-2.56,0-.68-.1-1.23-.3-1.66-.2-.43-.48-.76-.82-1-.35-.24-.75-.4-1.2-.48-.45-.08-.92-.12-1.4-.12h-6.09v6.69Z"/><polygon class="f" points="87.61 219.9 91.57 219.9 101.34 235.67 101.4 235.67 101.4 219.9 104.97 219.9 104.97 241.31 101.01 241.31 91.27 225.57 91.18 225.57 91.18 241.31 87.61 241.31 87.61 219.9"/><path class="f" d="M115.13,219.9h3.99l8.25,21.41h-4.02l-2.01-5.67h-8.55l-2.01,5.67h-3.87l8.21-21.41Zm-1.32,12.89h6.53l-3.21-9.2h-.09l-3.24,9.2Z"/><polygon class="f" points="124.61 219.9 141.94 219.9 141.94 223.14 135.14 223.14 135.14 241.31 131.39 241.31 131.39 223.14 124.61 223.14 124.61 219.9"/><rect class="f" x="144.43" y="219.9" width="3.75" height="21.41"/><path class="f" d="M161.88,219.39c1.6,0,3.03,.3,4.3,.9,1.27,.6,2.35,1.41,3.23,2.43,.88,1.02,1.55,2.21,2.02,3.57,.47,1.36,.71,2.8,.71,4.32s-.24,2.99-.71,4.35c-.47,1.36-1.14,2.55-2.02,3.57-.88,1.02-1.95,1.82-3.23,2.41-1.27,.59-2.7,.88-4.3,.88s-3.03-.29-4.3-.88c-1.27-.59-2.34-1.4-3.23-2.41-.88-1.02-1.55-2.21-2.02-3.57-.47-1.36-.71-2.81-.71-4.35s.24-2.96,.71-4.32c.47-1.36,1.14-2.55,2.02-3.57,.88-1.02,1.95-1.83,3.23-2.43,1.27-.6,2.7-.9,4.3-.9m0,3.06c-1.14,0-2.12,.23-2.95,.69-.83,.46-1.5,1.07-2.02,1.85-.52,.77-.9,1.64-1.15,2.62-.25,.98-.37,1.98-.37,3s.12,2.02,.37,3c.25,.98,.64,1.86,1.15,2.62,.52,.77,1.19,1.38,2.02,1.85,.83,.46,1.82,.69,2.95,.69s2.12-.23,2.95-.69c.83-.46,1.5-1.07,2.02-1.85,.52-.77,.9-1.64,1.15-2.62,.25-.98,.37-1.98,.37-3s-.13-2.02-.37-3c-.25-.98-.64-1.86-1.15-2.62-.52-.77-1.19-1.38-2.02-1.85-.83-.46-1.81-.69-2.95-.69"/><polygon class="f" points="175.4 219.9 179.36 219.9 189.14 235.67 189.2 235.67 189.2 219.9 192.76 219.9 192.76 241.31 188.81 241.31 179.06 225.57 178.97 225.57 178.97 241.31 175.4 241.31 175.4 219.9"/><path class="f" d="M202.93,219.9h3.99l8.25,21.41h-4.02l-2.01-5.67h-8.55l-2.01,5.67h-3.87l8.21-21.41Zm-1.32,12.89h6.53l-3.21-9.2h-.09l-3.24,9.2Z"/><polygon class="f" points="217.2 219.9 220.95 219.9 220.95 238.07 231.83 238.07 231.83 241.31 217.2 241.31 217.2 219.9"/><g><path class="f" d="M259.37,226.71c-.16-.62-.38-1.19-.66-1.71-.28-.52-.64-.97-1.08-1.35-.44-.38-.96-.67-1.55-.88-.59-.21-1.27-.32-2.05-.32-1.14,0-2.12,.23-2.95,.69-.83,.46-1.5,1.07-2.02,1.84-.52,.77-.9,1.64-1.15,2.62-.25,.98-.37,1.98-.37,3s.12,2.02,.37,3c.25,.98,.64,1.86,1.15,2.62,.52,.77,1.19,1.38,2.02,1.84,.83,.46,1.82,.69,2.95,.69,.84,0,1.58-.14,2.22-.43s1.19-.69,1.65-1.2c.46-.51,.82-1.1,1.08-1.79,.26-.68,.43-1.41,.51-2.19h3.66c-.08,1.28-.36,2.45-.83,3.51-.47,1.06-1.1,1.97-1.9,2.74-.8,.77-1.74,1.36-2.82,1.78-1.08,.42-2.27,.63-3.57,.63-1.6,0-3.03-.29-4.3-.88-1.27-.59-2.34-1.4-3.22-2.41-.88-1.02-1.55-2.21-2.02-3.57-.47-1.36-.71-2.81-.71-4.35s.24-2.96,.71-4.32c.47-1.36,1.14-2.55,2.02-3.57,.88-1.02,1.95-1.83,3.22-2.43,1.27-.6,2.7-.9,4.3-.9,1.2,0,2.33,.17,3.39,.5,1.06,.33,2,.81,2.81,1.44,.81,.63,1.46,1.39,1.96,2.29,.5,.9,.81,1.93,.93,3.09h-3.75Z"/><path class="f" d="M275.68,219.39c1.6,0,3.03,.3,4.3,.9,1.27,.6,2.35,1.41,3.23,2.43,.88,1.02,1.55,2.21,2.02,3.57,.47,1.36,.71,2.8,.71,4.32s-.24,2.99-.71,4.35c-.47,1.36-1.14,2.55-2.02,3.57-.88,1.02-1.95,1.82-3.23,2.41-1.27,.59-2.7,.88-4.3,.88s-3.03-.29-4.3-.88c-1.27-.59-2.34-1.4-3.23-2.41-.88-1.02-1.55-2.21-2.02-3.57-.47-1.36-.71-2.81-.71-4.35s.24-2.96,.71-4.32c.47-1.36,1.14-2.55,2.02-3.57,.88-1.02,1.95-1.83,3.23-2.43,1.27-.6,2.7-.9,4.3-.9m0,3.06c-1.14,0-2.12,.23-2.95,.69-.83,.46-1.5,1.07-2.02,1.85-.52,.77-.9,1.64-1.15,2.62-.25,.98-.37,1.98-.37,3s.12,2.02,.37,3c.25,.98,.64,1.86,1.15,2.62,.52,.77,1.19,1.38,2.02,1.85,.83,.46,1.82,.69,2.95,.69s2.12-.23,2.95-.69c.83-.46,1.5-1.07,2.02-1.85,.52-.77,.9-1.64,1.15-2.62,.25-.98,.37-1.98,.37-3s-.13-2.02-.37-3c-.25-.98-.64-1.86-1.15-2.62-.52-.77-1.19-1.38-2.02-1.85-.83-.46-1.81-.69-2.95-.69"/><polygon class="f" points="289.35 219.9 293.1 219.9 293.1 238.07 303.99 238.07 303.99 241.31 289.35 241.31 289.35 219.9"/><polygon class="f" points="306.57 219.9 310.31 219.9 310.31 238.07 321.2 238.07 321.2 241.31 306.57 241.31 306.57 219.9"/><polygon class="f" points="323.77 219.9 339.19 219.9 339.19 223.14 327.52 223.14 327.52 228.74 338.32 228.74 338.32 231.8 327.52 231.8 327.52 238.07 339.4 238.07 339.4 241.31 323.77 241.31 323.77 219.9"/><path class="f" d="M361.34,241.31h-2.4l-.57-2.52c-1,1.14-2,1.93-3,2.37-1,.44-2.15,.66-3.45,.66-1.6,0-3.04-.29-4.3-.88-1.27-.59-2.35-1.39-3.22-2.41-.88-1.02-1.55-2.21-2.02-3.57-.47-1.36-.71-2.81-.71-4.35s.23-2.96,.71-4.32c.47-1.36,1.14-2.55,2.02-3.57,.88-1.02,1.95-1.83,3.22-2.43,1.27-.6,2.7-.9,4.3-.9,1.16,0,2.26,.16,3.31,.47,1.05,.31,1.99,.77,2.8,1.38,.82,.61,1.5,1.37,2.04,2.29,.54,.92,.88,1.98,1.02,3.18h-3.66c-.1-.7-.32-1.32-.65-1.84s-.75-.97-1.24-1.34c-.5-.36-1.06-.63-1.68-.81-.62-.18-1.27-.27-1.95-.27-1.14,0-2.13,.23-2.96,.69-.83,.46-1.5,1.07-2.02,1.85-.52,.77-.91,1.64-1.15,2.62-.25,.98-.38,1.98-.38,3s.13,2.02,.38,3c.25,.98,.63,1.85,1.15,2.62,.52,.77,1.19,1.38,2.02,1.84,.83,.46,1.81,.69,2.96,.69,.96,.02,1.81-.11,2.55-.37,.74-.27,1.36-.66,1.87-1.17,.51-.51,.9-1.13,1.15-1.88,.26-.74,.4-1.56,.42-2.46h-5.7v-2.85h9.11v11.27Z"/><polygon class="f" points="365.42 219.9 380.83 219.9 380.83 223.14 369.17 223.14 369.17 228.74 379.96 228.74 379.96 231.8 369.17 231.8 369.17 238.07 381.04 238.07 381.04 241.31 365.42 241.31 365.42 219.9"/></g></g><g><path class="i" d="M55.1,177.03h14.98c2.76,0,4.98,.63,6.65,1.9,1.67,1.27,2.5,3.18,2.5,5.74,0,1.56-.38,2.89-1.14,3.99-.76,1.11-1.85,1.97-3.26,2.57v.09c1.9,.4,3.34,1.3,4.32,2.7,.98,1.4,1.47,3.15,1.47,5.25,0,1.21-.21,2.34-.65,3.39-.43,1.05-1.11,1.96-2.03,2.72-.92,.76-2.1,1.37-3.54,1.81-1.44,.45-3.15,.67-5.14,.67h-14.16v-30.83Zm5.4,12.91h8.81c1.29,0,2.37-.37,3.24-1.1,.86-.73,1.3-1.79,1.3-3.17,0-1.55-.39-2.65-1.17-3.28-.78-.63-1.9-.95-3.37-.95h-8.81v8.51Zm0,13.51h9.54c1.64,0,2.91-.42,3.82-1.27,.91-.85,1.36-2.05,1.36-3.6s-.45-2.7-1.36-3.52c-.91-.82-2.18-1.23-3.82-1.23h-9.54v9.63Z"/><rect class="i" x="85.5" y="177.03" width="5.4" height="30.83"/><path class="i" d="M97.5,177.03h14.72c3.4,0,5.94,.73,7.64,2.2,1.7,1.47,2.55,3.51,2.55,6.13,0,1.47-.22,2.68-.65,3.65-.43,.96-.94,1.74-1.51,2.33-.58,.59-1.14,1.02-1.71,1.27-.56,.26-.97,.43-1.23,.52v.09c.46,.06,.96,.2,1.49,.43,.53,.23,1.03,.6,1.49,1.1,.46,.5,.84,1.16,1.14,1.96,.3,.81,.45,1.81,.45,3.02,0,1.81,.14,3.46,.41,4.94,.27,1.48,.7,2.54,1.27,3.17h-5.79c-.4-.66-.64-1.4-.71-2.2-.07-.8-.11-1.58-.11-2.33,0-1.41-.09-2.63-.26-3.65-.17-1.02-.49-1.87-.95-2.55-.46-.68-1.09-1.17-1.88-1.49-.79-.32-1.8-.48-3.04-.48h-7.94v12.69h-5.4v-30.83Zm5.4,14.03h8.85c1.73,0,3.04-.41,3.93-1.23,.89-.82,1.34-2.05,1.34-3.69,0-.98-.14-1.78-.43-2.4-.29-.62-.68-1.1-1.19-1.45-.5-.35-1.08-.57-1.73-.69-.65-.11-1.32-.17-2.01-.17h-8.76v9.63Z"/><path class="i" d="M136.14,177.03h5.74l11.87,30.83h-5.79l-2.89-8.16h-12.31l-2.89,8.16h-5.57l11.83-30.83Zm-1.9,18.56h9.41l-4.62-13.25h-.13l-4.66,13.25Z"/><polygon class="i" points="149.79 177.03 174.74 177.03 174.74 181.69 164.94 181.69 164.94 207.86 159.55 207.86 159.55 181.69 149.79 181.69 149.79 177.03"/><polygon class="i" points="178.11 177.03 183.81 177.03 197.88 199.74 197.97 199.74 197.97 177.03 203.11 177.03 203.11 207.86 197.41 207.86 183.38 185.19 183.25 185.19 183.25 207.86 178.11 207.86 178.11 177.03"/><path class="i" d="M217.74,177.03h5.74l11.87,30.83h-5.79l-2.89-8.16h-12.31l-2.89,8.16h-5.57l11.83-30.83Zm-1.9,18.56h9.41l-4.62-13.25h-.13l-4.66,13.25Z"/><path class="i" d="M265.2,207.86h-3.45l-.82-3.63c-1.44,1.64-2.88,2.78-4.32,3.41-1.44,.63-3.09,.95-4.96,.95-2.31,0-4.37-.42-6.2-1.27-1.83-.85-3.37-2.01-4.64-3.48-1.27-1.47-2.24-3.18-2.91-5.14-.68-1.96-1.02-4.04-1.02-6.26s.34-4.26,1.02-6.22c.67-1.96,1.65-3.67,2.91-5.14,1.27-1.47,2.81-2.63,4.64-3.5,1.83-.86,3.89-1.29,6.2-1.29,1.67,0,3.26,.22,4.77,.67,1.51,.45,2.86,1.11,4.04,1.99,1.18,.88,2.16,1.98,2.94,3.3,.78,1.32,1.27,2.85,1.47,4.58h-5.27c-.14-1.01-.45-1.89-.93-2.65-.47-.76-1.07-1.41-1.79-1.92-.72-.52-1.52-.91-2.42-1.17-.89-.26-1.83-.39-2.81-.39-1.64,0-3.06,.33-4.25,.99-1.19,.66-2.17,1.55-2.91,2.65-.75,1.11-1.3,2.37-1.66,3.78-.36,1.41-.54,2.85-.54,4.32s.18,2.91,.54,4.32c.36,1.41,.92,2.67,1.66,3.78,.75,1.11,1.72,1.99,2.91,2.66,1.19,.66,2.61,.99,4.25,.99,1.38,.03,2.6-.15,3.67-.54,1.06-.39,1.97-.95,2.7-1.68,.73-.73,1.29-1.63,1.66-2.7,.37-1.06,.58-2.24,.6-3.54h-8.2v-4.1h13.13v16.23Z"/><path class="i" d="M279.31,177.03h5.74l11.87,30.83h-5.79l-2.89-8.16h-12.31l-2.89,8.16h-5.57l11.83-30.83Zm-1.9,18.56h9.41l-4.62-13.25h-.13l-4.66,13.25Z"/><path class="i" d="M299.86,177.03h14.72c3.4,0,5.94,.73,7.64,2.2,1.7,1.47,2.55,3.51,2.55,6.13,0,1.47-.22,2.68-.65,3.65-.43,.96-.94,1.74-1.51,2.33-.58,.59-1.14,1.02-1.71,1.27-.56,.26-.97,.43-1.23,.52v.09c.46,.06,.96,.2,1.49,.43,.53,.23,1.03,.6,1.49,1.1,.46,.5,.84,1.16,1.14,1.96,.3,.81,.45,1.81,.45,3.02,0,1.81,.14,3.46,.41,4.94,.27,1.48,.7,2.54,1.27,3.17h-5.79c-.4-.66-.64-1.4-.71-2.2-.07-.8-.11-1.58-.11-2.33,0-1.41-.09-2.63-.26-3.65-.17-1.02-.49-1.87-.95-2.55-.46-.68-1.09-1.17-1.88-1.49-.79-.32-1.8-.48-3.04-.48h-7.94v12.69h-5.4v-30.83Zm5.4,14.03h8.85c1.73,0,3.04-.41,3.93-1.23,.89-.82,1.34-2.05,1.34-3.69,0-.98-.14-1.78-.43-2.4-.29-.62-.68-1.1-1.19-1.45-.5-.35-1.08-.57-1.73-.69-.65-.11-1.32-.17-2.01-.17h-8.76v9.63Z"/></g><path class="d" d="M248.14,6.51c-6.64,6.05-19.4,7.78-32.39,3.61-7.38-2.37-13.59-4.83-17.92-8.22V63.58h50.33c0-22.71,0-49.96-.01-57.07Z"/><path class="d" d="M132.88,6.82c0,7.54,0,34.35-.01,56.74h50.33V1.61c-4.35,3.55-10.7,6.08-18.29,8.51-12.76,4.09-25.3,2.49-32.02-3.31Z"/><path class="d" d="M248.14,79.08h-50.29v72.17c14.09-4.77,50.36-18.92,50.33-37.97,0,0-.03-21.69-.03-34.2Z"/><path class="d" d="M133.15,113.5c.04,18.86,35.64,32.77,50.05,37.62V79.07h-50.33c0,12.52,.28,34.44,.28,34.44Z"/><path class="i" d="M249.43,4.86c-6.98,6.35-20.39,8.18-34.04,3.8-7.76-2.49-14.29-5.08-18.84-8.64V65.16h52.9c0-23.87,0-52.83-.01-60.3Zm-14.22,38.98l-3.23,2.48-.8-1.94,4.03-.54Zm-4.7-.46l-1.49-1.49,3.52-2.04-2.04,3.52Zm-16.28-23.65c.41,3.09,2.82,5.74,6.14,6.98l.02-1.36-1.93-.98,1.98-.87-1.31-1.72,2.17,.08-.43-2.12,1.92,1.01,.53-2.1,1.29,1.74,1.39-1.67,.41,2.13,1.97-.9-.56,2.1,2.17,.05-1.41,1.65,1.93,.99-1.98,.87v1.28c3.37-1.11,5.86-3.67,6.39-6.74,0,.14,0,.27,0,.41-.12,6.52-4.83,11.03-10.54,10.92-5.71-.11-10.26-4.69-10.13-11.31,0-.14,0-.27,0-.41Zm14.33,17.46l-.54,4.03-1.94-.8,2.48-3.23Zm-3.65,2.99h-2.1l1.05-3.93,1.05,3.93Zm-3.28,.23l-1.94,.8-.54-4.03,2.48,3.23Zm-2.94,1.47l-1.48,1.48-2.04-3.52,3.52,2.04Zm-2.15,2.48l-.8,1.94-3.23-2.47,4.03,.53Zm-1.04,3.12v2.1l-3.93-1.05,3.93-1.05Zm.23,3.28l.8,1.94-4.03,.53,3.23-2.47Zm-.57,6.46l2.04-3.52,1.48,1.49-3.52,2.04Zm3.98,2.67l.53-4.03,1.94,.8-2.48,3.23Zm4.7,.94l-1.05-3.93h2.1l-1.05,3.93Zm2.23-4.16l1.94-.8,.53,4.03-2.47-3.23Zm-2.22-1.24c-3.79,0-6.87-3.07-6.87-6.86s3.07-6.86,6.87-6.86,6.86,3.07,6.86,6.86-3.07,6.86-6.86,6.86Zm5.16-.23l1.49-1.49,2.04,3.52-3.52-2.04Zm2.15-2.48l.81-1.94,3.23,2.48-4.04-.54Zm1.04-3.11v-2.1l3.93,1.05-3.93,1.05Z"/><g><path class="f" d="M150.12,50.92c-.29-.3-.65-.46-1.05-.54-.51-.09-1.01-.14-1.53-.07h-.06c-.12,.01-.2-.03-.24-.15-.01-.04-.02-.09-.04-.14-.02-.07-.05-.15-.06-.22-.03-.12-.1-.17-.22-.17-.1,0-.2,0-.31,0-.19,0-.26-.07-.28-.26-.07-.57-.26-1.1-.51-1.61-.16-.31-.4-.54-.69-.72-.49-.28-1-.33-1.54-.19-.29,.08-.54,.23-.77,.43-.44,.37-.64,.85-.69,1.41-.04,.46,.03,.91,.2,1.34,.14,.36,.35,.67,.6,.95,.05,.06,.1,.12,.15,.17,.11,.09,.22,.17,.33,.25h0s.04,.04,.07,.06c.22,.2,.5,.32,.78,.41,.12,.04,.26,.04,.39,.05,.1,.01,.2,.02,.3,.04,.29,.05,.44,.26,.5,.52,.08,.33,.27,.6,.47,.86,.03,.03,.06,.06,.09,.08,.2,.16,.4,.32,.61,.47,.11,.08,.24,.13,.36,.19,.79,.38,1.6,.39,2.41,.07,.4-.15,.7-.43,.94-.78,.28-.42,.38-.89,.31-1.38-.06-.41-.23-.77-.52-1.08Z"/><path class="f" d="M152.26,40.76c.11-.14,.22-.28,.33-.43-.01,.02-.02,.03-.03,.04h0c-.34,.44-.56,.72-.29,.38Z"/><path class="f" d="M152.66,40.24c.08-.1,.16-.21,.24-.31l-.24,.31-.07,.09s.05-.06,.07-.09Z"/><path class="f" d="M165.26,8.97c-13.42,4.3-26.6,2.62-33.68-3.48,0,7.93,0,36.13-.01,59.68h52.93V.01c-4.57,3.73-11.25,6.39-19.24,8.95Zm10.01,16.88c-.17,.25-.58,.76-.68,.85-.08,0-.12-.06-.18-.1-.63-.49-1.25-.97-1.88-1.46-.16-.13-.33-.25-.49-.38-.04-.03-.08-.04-.13-.07-.11,.13-.21,.25-.3,.38-.09,.13-.22,.24-.28,.41,.1,.08,.2,.16,.3,.24,.33,.26,.66,.52,.99,.78,.04,.03,.1,.06,.1,.15-.04,.06-.09,.13-.15,.2-.16,.21-.32,.41-.48,.62-.04,.05-.1,.1-.1,.18,.03,.07,.09,.1,.15,.14,.22,.17,.43,.34,.65,.51,.05,.04,.11,.07,.12,.15-.02,.03-.04,.07-.06,.1-.34,.44-.67,.87-1.02,1.31-.02,.03-.05,.04-.07,.05-.09-.01-.13-.07-.19-.11-.22-.17-.43-.34-.65-.51-.04-.03-.08-.08-.17-.05-.08,.1-.17,.21-.25,.33-.09,.12-.18,.24-.28,.36-.09,.11-.16,.24-.27,.32-.09,0-.15-.06-.21-.11-.33-.26-.66-.52-1-.78-.06-.04-.11-.1-.18-.12-.02,.01-.04,.02-.05,.03-.17,.22-.34,.43-.51,.65-.01,.02-.01,.05-.02,.08,.04,.04,.08,.08,.12,.11,.2,.15,.39,.31,.59,.46,.55,.43,1.1,.85,1.65,1.28,.05,.04,.12,.07,.13,.15,0,.02,0,.03-.01,.04-.22,.28-.43,.56-.65,.84-.02,.02-.05,.04-.08,.06-.06-.04-.11-.07-.16-.11-1.02-.79-2.05-1.59-3.08-2.38-.5-.39-1-.78-1.5-1.17-.06-.04-.11-.11-.2-.12-.07,.05-.11,.12-.16,.18-.49,.63-.98,1.25-1.46,1.88-1.16,1.49-2.32,2.99-3.48,4.48-1.25,1.61-2.5,3.22-3.75,4.82-1.11,1.43,1.25-1.6,.14-.17-.4,.51-.8,1.02-1.2,1.54-.04,.06-.1,.11-.12,.19,.02,.03,.05,.06,.07,.08,.09,.07,.19,.14,.27,.22,.13,.11,.17,.29,.1,.43-.1,.2-.26,.29-.45,.25-.07-.01-.13-.05-.19-.09-.08-.05-.15-.12-.23-.17-.03-.02-.07-.04-.11-.06-.03,.05-.06,.08-.09,.13,.07,.08,.16,.14,.24,.21,.05,.04,.11,.09,.16,.13,.09,.09,.12,.2,.08,.33-.07,.28-.38,.4-.62,.24-.09-.06-.17-.13-.27-.2-.03-.02-.07-.04-.09-.06-.09,.06-.09,.14-.07,.21,.04,.14,.08,.28,.13,.41,.07,.17,.07,.32,0,.48-.08,.19-.2,.33-.38,.43-.15,.09-.3,.17-.46,.24-.27,.12-.54,.24-.82,.35-.09,.04-.17,.09-.23,.17-.16,.21-.32,.41-.48,.62-.03,.04-.05,.08-.08,.12,.03,.04,.05,.07,.08,.11,.13,.16,.26,.32,.38,.49,.45,.58,.79,1.21,1.02,1.91,.31,.92,.43,1.85,.27,2.81-.1,.59-.3,1.13-.61,1.64-.21,.34-.46,.63-.75,.91-.35,.34-.75,.61-1.19,.81-.64,.3-1.33,.46-2.04,.5-.4,.02-.8,0-1.2-.05-.36-.06-.72-.13-1.07-.23-.25-.08-.49-.17-.74-.27-.43-.17-.83-.39-1.21-.63-.61-.39-1.16-.86-1.65-1.4-.21-.23-.39-.48-.57-.73-.44-.61-.76-1.28-.98-1.99-.16-.52-.25-1.05-.25-1.59-.02-.74,.12-1.45,.43-2.13,.13-.3,.3-.57,.5-.83,.09-.13,.21-.24,.31-.36,.2-.22,.42-.42,.66-.59,.54-.38,1.14-.64,1.79-.78,.7-.16,1.41-.17,2.12-.08,.51,.06,1.01,.18,1.48,.36,.3,.11,.6,.21,.87,.38,.04,.02,.09,.04,.13,.05,.02-.02,.04-.03,.06-.04,.19-.24,.38-.48,.56-.72,.03-.04,.06-.1,.07-.15,.03-.18,.05-.37,.08-.55,.06-.31,.1-.62,.2-.93,.04-.13,.11-.24,.2-.34,.16-.18,.35-.28,.6-.22,.14,.03,.29,.02,.43,.02,.07,0,.14-.02,.16-.12-.05-.04-.1-.09-.15-.13-.04-.03-.08-.06-.11-.09-.12-.12-.16-.3-.09-.44,.09-.16,.18-.26,.4-.25,0,0,.14,.04,.21,.09,.08,.06,.15,.14,.26,.18,.03-.02,.05-.04,.07-.07,0-.01,0-.04,.02-.06-.06-.08-.14-.13-.22-.18-.22-.17-.26-.52,.09-.7,.12-.06,.24-.05,.35,.03,.07,.05,.13,.1,.2,.15,.03,.02,.07,.04,.12,.06l.11-.14c.21-.28,.43-.55,.64-.83,.07-.09,.15-.19,.22-.28l.07-.09c.07-.09,.1-.13,.11-.14,.58-.75,1.16-1.49,1.74-2.24,.35-.45,.69-.9,1.04-1.34,.71-.92,1.43-1.83,2.14-2.75,.35-.45,.7-.89,1.04-1.34,.71-.92,1.43-1.83,2.14-2.75,.34-.44,.68-.88,1.02-1.33,.71-.91,1.42-1.82,2.13-2.73,.59-.76,1.18-1.51,1.76-2.27,.53-.67,1.05-1.35,1.58-2.03,.42-.54,.85-1.09,1.27-1.64,.08-.1,.15-.13,.27-.1,0,0,.07,.02,.1,.03,.3,.09,.57,.23,.83,.42,.39,.3,.7,.67,.98,1.06,.04,.05,.07,.12,.1,.18-.05,.07-.1,.13-.14,.19-.37,.48-.75,.96-1.12,1.44-.04,.06-.1,.11-.12,.18,.04,.08,.11,.12,.17,.16,.83,.64,1.65,1.29,2.48,1.93,.69,.53,1.38,1.07,2.06,1.6,.06,.05,.13,.08,.17,.16-.01,.02-.03,.06-.04,.08Z"/></g><path class="f" d="M249.44,77.21h-52.9v75.91c14.82-5.02,52.97-19.9,52.93-39.94,0,0-.03-22.81-.03-35.97Zm-18.84,41.19l-14.45-4.2c-.07,.42-.5,.47-.5,.47-.98,.1-1.14-1.02-1.14-1.02l-11.5-3.37-.51-2.41c8.09,.69,12.47,5.21,12.47,5.21,.28,.27,.59,.06,.59,.06,5.83-3.36,13.25,2.02,13.25,2.02l1.79,3.23Zm.95-.2l-1.92-3.5,8.57-16.32,2.35,2.68-9,17.14Zm-2.67-4.09c-5.9-3.88-10.53-2.86-10.53-2.86,4.43-1.6,9.06,.5,9.06,.5l7.92-14.57,2.11,.63-8.56,16.29Zm6.51-19.01l-8.43,15.51s-5.48-2.25-10.12,.3l7.92-14.3s5.25-1.82,10.63-1.5Zm-9.05,.09s-1.18,.28-1.94,.66c0,0-2.23-1.62-5.59-2.64-.06-.02,7.52,1.98,7.52,1.98Zm-12.48-3.28l2.43,.65c-.52-.17-2.58-.42-2.58-.42l.16-.24Zm-2.08,1.02c7.63,.35,11.95,3.6,11.95,3.6l-8.57,15.49c-5.67-5.05-12.86-4.98-12.86-4.98l9.48-14.11Zm-10.8,20.36l-.1-.5,12.88,3.98,.1,.31-12.88-3.79Zm32.57,9.85l-17.08-5.13s-1.12,1.46-1.74,.09c0,0,.66,.31,1.65-.52l16.89,5.22,9.18-17.42-8.91,17.76Zm-.73-1.45l-16.72-5.17s-.61,.82-1.02,.72c-.36-.09-.55-.93-.54-1.2l-14.01-4.32,1.37-2.03,.28,1.35,11.62,3.4s1.15,1.98,2.7,.85l15.3,4.45,9.85-18.8-1.93-2.21,4.56,1.2-11.47,21.77Z"/><g><path class="i" d="M131.57,77.21c0,13.16,.29,36.35,.29,36.35,.04,19.84,37.48,34.46,52.64,39.57V77.21h-52.93Zm28.74,46.55c-9.79,0-17.76-7.97-17.76-17.76s7.96-17.76,17.76-17.76,17.76,7.96,17.76,17.76-7.96,17.76-17.76,17.76Z"/><g><polygon class="i" points="159.16 96.56 159.04 96.54 158.98 96.45 158.87 96.39 158.82 96.48 158.86 96.6 159 96.61 159.05 96.7 159.04 96.8 158.97 96.91 158.94 97.04 159.08 97.13 159.22 97.17 159.36 97.2 159.5 97.22 159.6 97.15 159.71 97.22 159.86 97.19 159.92 97.08 159.93 96.98 159.8 96.9 159.69 96.89 159.57 96.85 159.41 96.9 159.27 96.84 159.18 96.75 159.23 96.71 159.17 96.64 159.16 96.56"/><polygon class="i" points="158.62 96.89 158.69 96.96 158.8 97.03 158.85 96.89 158.83 96.79 158.75 96.77 158.62 96.89"/><polygon class="i" points="160.09 95.08 160 95.16 159.9 95.21 159.81 95.25 159.8 95.3 159.7 95.28 159.61 95.37 159.59 95.49 159.65 95.59 159.78 95.61 159.89 95.59 160.02 95.6 160.17 95.58 160.07 95.65 159.92 95.68 159.85 95.73 159.75 95.67 159.67 95.8 159.75 95.86 159.72 95.97 159.74 96.07 159.65 96.09 159.51 96.22 159.62 96.3 159.47 96.3 159.44 96.41 159.49 96.46 159.41 96.48 159.29 96.54 159.26 96.65 159.38 96.69 159.56 96.74 159.65 96.7 159.75 96.74 159.83 96.7 159.86 96.79 160.01 96.73 160.11 96.63 160.01 96.51 160.13 96.43 160.11 96.34 160.25 96.32 160.3 96.2 160.3 96.07 160.36 95.94 160.5 95.88 160.56 95.76 160.61 95.65 160.71 95.55 160.79 95.42 160.78 95.36 160.84 95.28 160.88 95.22 160.86 95.16 160.78 95.14 160.71 95.09 160.6 95.07 160.5 95.04 160.4 95.05 160.32 95.07 160.23 95.06 160.09 95.08"/><polygon class="i" points="158.43 97.08 158.32 97.11 158.23 97.06 158.12 97.07 158.07 97.15 158.08 97.29 157.97 97.24 157.87 97.25 157.88 97.34 157.85 97.44 157.95 97.48 157.98 97.61 158 97.77 158.15 97.71 158.29 97.71 158.37 97.56 158.39 97.4 158.3 97.32 158.43 97.22 158.43 97.08"/><polygon class="i" points="159.64 102.47 159.59 102.39 159.45 102.48 159.55 102.47 159.43 102.58 159.53 102.59 159.59 102.52 159.58 102.64 159.64 102.47"/><polygon class="i" points="159.08 95.59 159.02 95.64 159.09 95.71 159.08 95.59"/><polygon class="i" points="160.93 91.42 160.9 91.34 160.79 91.31 160.71 91.27 160.61 91.28 160.62 91.35 160.57 91.42 160.61 91.48 160.7 91.52 160.71 91.58 160.67 91.62 160.72 91.67 160.75 91.72 160.88 91.68 160.93 91.6 161.03 91.54 161.03 91.47 160.93 91.42"/><polygon class="i" points="159.45 100.34 159.59 100.23 159.46 100.15 159.41 100.02 159.32 99.91 159.18 99.8 159.07 99.67 159.06 99.52 158.92 99.62 158.86 99.74 158.81 99.9 158.81 100.08 158.65 100.17 158.83 100.2 158.82 100.35 158.95 100.34 159.06 100.23 159.15 100.14 159.25 100.15 159.35 100.23 159.45 100.34"/><polygon class="i" points="159 103.44 159.11 103.51 159.23 103.56 159.19 103.43 159.12 103.4 159 103.44"/><polygon class="i" points="159.33 100.53 159.24 100.52 159.12 100.56 159.06 100.67 159.18 100.66 159.33 100.55 159.33 100.53"/><polygon class="i" points="160.02 97.66 160.16 97.69 160.18 97.61 160.15 97.5 160.06 97.44 159.94 97.42 159.83 97.44 159.79 97.52 159.81 97.65 159.92 97.69 160.02 97.66"/><polygon class="i" points="157.58 97.36 157.62 97.25 157.75 97.16 157.84 97.09 157.82 96.99 157.7 96.95 157.56 97.05 157.43 97.15 157.37 97.01 157.25 97 157.21 96.91 157.05 96.94 157.13 96.79 157.05 96.74 156.93 96.77 156.81 96.75 156.69 96.77 156.63 96.83 156.52 96.85 156.42 96.93 156.47 97.04 156.38 97.1 156.39 97.21 156.51 97.31 156.62 97.37 156.68 97.49 156.53 97.49 156.41 97.42 156.3 97.37 156.21 97.53 156.26 97.65 156.38 97.72 156.32 97.91 156.46 97.96 156.63 98.02 156.81 98.02 156.96 98.04 157.11 98 157.15 98.12 157.23 98.24 157.37 98.26 157.51 98.22 157.51 98.1 157.64 98.12 157.71 98.01 157.58 97.91 157.49 97.79 157.45 97.66 157.55 97.52 157.58 97.36"/><polygon class="i" points="160.42 91.15 160.3 91.18 160.3 91.26 160.37 91.32 160.46 91.37 160.52 91.34 160.57 91.27 160.63 91.19 160.67 91.12 160.56 91.16 160.42 91.15"/><polygon class="i" points="159.7 100.68 159.58 100.67 159.55 100.84 159.61 100.92 159.67 100.8 159.7 100.68"/><polygon class="i" points="158.89 96.22 158.98 96.3 159.1 96.36 159.17 96.31 159.18 96.26 159.03 96.21 158.89 96.22"/><polygon class="i" points="162.86 104.5 162.98 104.48 162.89 104.39 162.79 104.36 162.67 104.32 162.53 104.32 162.4 104.34 162.54 104.39 162.6 104.46 162.73 104.49 162.86 104.5"/><polygon class="i" points="162.89 105.33 162.77 105.35 162.64 105.32 162.61 105.21 162.57 105.3 162.65 105.36 162.78 105.42 162.97 105.47 162.95 105.37 163.04 105.28 162.89 105.33"/><polygon class="i" points="156.9 96.22 156.75 96.21 156.62 96.16 156.53 96.31 156.4 96.4 156.25 96.47 156.12 96.52 156.12 96.68 156.03 96.84 156.18 96.85 156.28 96.89 156.44 96.83 156.61 96.71 156.77 96.7 156.92 96.69 157.07 96.69 157.03 96.55 157.05 96.42 156.94 96.35 156.9 96.22"/><polygon class="i" points="161.6 113.91 161.74 113.88 161.91 113.83 162.06 113.82 162.16 113.9 162.25 113.78 162.13 113.67 161.89 113.64 162 113.57 161.83 113.58 161.78 113.49 161.61 113.47 161.46 113.46 161.27 113.47 161.18 113.52 161.01 113.45 160.84 113.46 160.74 113.53 160.89 113.53 160.96 113.62 160.96 113.71 161.08 113.82 160.96 113.89 160.82 113.9 160.69 113.86 160.55 113.83 160.45 113.9 160.65 113.99 160.7 113.95 160.84 113.94 160.96 113.97 161.09 113.94 161.24 113.96 161.36 114.09 161.46 113.97 161.45 113.9 161.6 113.84 161.6 113.91"/><polygon class="i" points="160.16 113.49 160.3 113.49 160.4 113.44 160.55 113.42 160.52 113.37 160.45 113.37 160.35 113.28 160.21 113.25 160.11 113.28 160.14 113.16 160.02 113.14 159.87 113.11 159.73 113.01 159.61 112.96 159.49 112.89 159.35 112.81 159.21 112.76 159.07 112.75 158.97 112.65 158.86 112.6 158.74 112.54 158.6 112.53 158.46 112.47 158.32 112.46 158.18 112.49 158.03 112.5 157.89 112.51 157.75 112.57 157.65 112.63 157.64 112.72 157.5 112.75 157.69 112.78 157.74 112.69 157.9 112.7 158.01 112.64 158.1 112.58 158.24 112.62 158.43 112.66 158.29 112.69 158.38 112.77 158.52 112.81 158.73 112.82 158.82 112.9 158.94 112.93 159.08 112.99 159.23 112.97 159.28 113.02 159.29 113.14 159.44 113.24 159.65 113.24 159.7 113.34 159.6 113.41 159.53 113.47 159.72 113.48 159.87 113.46 160.01 113.46 160.16 113.49"/><polygon class="i" points="162.59 113.75 162.6 113.88 162.72 113.89 162.84 113.86 162.96 113.85 163.03 113.77 162.93 113.71 162.76 113.73 162.59 113.75"/><polygon class="i" points="158.02 96.54 158.1 96.46 158.04 96.39 157.99 96.27 158.03 96.15 157.95 96.17 157.85 96.22 157.88 96.29 157.82 96.34 157.8 96.43 157.69 96.35 157.71 96.26 157.72 96.18 157.67 96.07 157.6 96.02 157.5 96.07 157.37 96.14 157.25 96.2 157.31 96.28 157.34 96.36 157.45 96.33 157.45 96.44 157.34 96.44 157.33 96.51 157.4 96.57 157.49 96.58 157.6 96.55 157.71 96.54 157.84 96.62 157.94 96.64 158.02 96.54"/><polygon class="i" points="157.41 91.13 157.38 91.08 157.27 91.09 157.11 91.15 157.17 91.18 157.34 91.18 157.41 91.13"/><polygon class="i" points="158.14 96.59 158.05 96.66 158.13 96.69 158.14 96.59"/><polygon class="i" points="157.33 96.09 157.42 96.02 157.32 96.02 157.22 96.07 157.25 96.13 157.33 96.09"/><polygon class="i" points="158.13 95.67 158.05 95.7 158.14 95.74 158.17 95.79 158.25 95.82 158.32 95.8 158.26 95.71 158.13 95.67"/><polygon class="i" points="157.92 95.89 157.98 95.95 158.11 95.94 158.2 95.85 158.14 95.82 158.05 95.82 157.96 95.81 157.92 95.89"/><polygon class="i" points="157.25 95.76 157.12 95.75 157.09 95.87 157.16 95.91 157.21 95.98 157.34 95.95 157.44 95.9 157.47 95.99 157.63 95.95 157.68 95.86 157.79 95.84 157.77 95.75 157.67 95.78 157.59 95.72 157.5 95.72 157.38 95.73 157.25 95.76"/><polygon class="i" points="157.89 95.78 157.94 95.8 157.99 95.72 157.9 95.72 157.89 95.78"/><polygon class="i" points="156.98 91.58 157.05 91.64 157.18 91.59 157.31 91.53 157.38 91.51 157.24 91.49 157.06 91.53 156.98 91.58"/><polygon class="i" points="162.62 92.45 162.74 92.5 162.69 92.52 162.68 92.56 162.84 92.61 162.84 92.56 162.8 92.52 162.87 92.5 162.86 92.45 162.79 92.41 162.72 92.43 162.62 92.42 162.62 92.45"/><polygon class="i" points="160.96 95.23 160.88 95.33 160.93 95.41 160.93 95.48 160.83 95.48 160.79 95.55 160.72 95.66 160.69 95.78 160.83 95.76 160.88 95.84 160.84 95.99 160.67 96.05 160.58 96.12 160.47 96.17 160.43 96.28 160.44 96.29 160.52 96.35 160.61 96.34 160.64 96.42 160.75 96.48 160.65 96.51 160.57 96.57 160.64 96.63 160.75 96.67 160.71 96.74 160.79 96.8 160.94 96.84 161.02 96.77 161.15 96.74 161.28 96.73 161.43 96.79 161.56 96.81 161.59 96.9 161.68 96.97 161.8 97.08 161.85 97.21 161.96 97.3 162.02 97.4 162.04 97.56 162.13 97.66 162.14 97.8 162.21 97.86 162.32 97.83 162.35 97.72 162.47 97.86 162.59 97.87 162.69 97.99 162.5 97.96 162.36 97.99 162.39 98.15 162.42 98.31 162.58 98.38 162.71 98.29 162.75 98.14 162.87 98.28 162.93 98.49 162.77 98.54 162.74 98.67 162.76 98.84 162.81 99 162.89 99.13 162.94 99.27 163.12 99.37 163.24 99.51 163.3 99.68 163.42 99.74 163.48 99.85 163.68 100.02 163.75 100.1 163.89 100.24 164.01 100.36 164.22 100.47 164.41 100.43 164.55 100.43 164.68 100.51 164.89 100.53 164.96 100.45 164.94 100.29 164.88 100.15 164.84 100 164.83 99.84 164.68 99.69 164.74 99.55 164.75 99.38 164.7 99.24 164.63 99.1 164.46 98.96 164.58 98.93 164.55 98.81 164.64 98.7 164.79 98.62 164.87 98.47 164.89 98.34 164.91 98.21 164.88 98.08 164.84 97.96 164.83 97.82 164.85 97.71 164.96 97.64 165 97.51 165.07 97.4 165.11 97.27 165.12 97.16 165.12 97.03 165.12 96.9 165.08 96.79 164.99 96.85 164.84 96.87 164.81 96.99 164.76 96.94 164.77 96.83 164.65 96.74 164.67 96.66 164.76 96.71 164.88 96.78 164.97 96.76 165.03 96.67 164.92 96.57 164.82 96.49 164.68 96.45 164.53 96.45 164.4 96.43 164.52 96.4 164.65 96.37 164.59 96.3 164.46 96.21 164.37 96.24 164.37 96.16 164.36 96.1 164.41 96.03 164.33 95.96 164.23 95.99 164.27 95.83 164.19 95.74 164.13 95.8 164.03 95.67 163.91 95.59 163.76 95.52 163.67 95.57 163.59 95.5 163.57 95.41 163.69 95.36 163.62 95.3 163.47 95.24 163.35 95.22 163.24 95.12 163.13 95.06 163.09 94.98 163 94.9 162.91 94.8 162.84 94.69 162.79 94.6 162.69 94.44 162.56 94.44 162.46 94.51 162.5 94.6 162.44 94.63 162.47 94.7 162.48 94.78 162.45 94.87 162.38 94.77 162.36 94.68 162.34 94.64 162.26 94.6 162.22 94.66 162.29 94.7 162.26 94.75 162.16 94.69 162.03 94.79 162.04 94.72 162.13 94.67 162.19 94.57 162.18 94.48 162.07 94.48 161.98 94.51 161.9 94.48 161.77 94.48 161.66 94.54 161.54 94.6 161.48 94.7 161.38 94.81 161.36 94.92 161.39 95.02 161.26 95.05 161.3 95.17 161.13 95.13 160.96 95.23"/><polygon class="i" points="158.25 96.31 158.24 96.42 158.21 96.51 158.21 96.63 158.35 96.62 158.34 96.78 158.5 96.83 158.59 96.72 158.63 96.61 158.68 96.52 158.61 96.41 158.51 96.37 158.42 96.42 158.36 96.52 158.35 96.41 158.32 96.32 158.25 96.31"/><polygon class="i" points="154.73 93.25 154.85 93.19 154.89 93.07 154.81 92.99 154.72 93 154.74 93.08 154.69 93.14 154.73 93.25"/><polygon class="i" points="157.44 91.44 157.49 91.47 157.58 91.45 157.62 91.43 157.76 91.43 157.74 91.34 157.94 91.33 157.99 91.26 157.91 91.17 157.76 91.13 157.67 91.16 157.62 91.22 157.55 91.29 157.46 91.3 157.44 91.37 157.44 91.44"/><polygon class="i" points="159.22 95.95 159.2 96.06 159.24 96.17 159.41 96.2 159.51 96.12 159.59 96.01 159.68 95.96 159.7 95.87 159.61 95.82 159.67 95.72 159.64 95.65 159.53 95.62 159.51 95.53 159.52 95.42 159.45 95.4 159.39 95.51 159.3 95.57 159.25 95.68 159.29 95.77 159.28 95.87 159.22 95.95"/><polygon class="i" points="158.4 96.12 158.44 96.04 158.38 96.04 158.32 96.16 158.39 96.22 158.4 96.12"/><polygon class="i" points="158.56 95.93 158.65 96 158.72 96.03 158.71 96.14 158.81 96.12 158.91 96.14 159 96.15 159.05 96.09 159.06 96.02 158.97 95.9 158.92 96 158.84 96.09 158.79 96.06 158.81 95.97 158.86 95.87 158.83 95.77 158.75 95.74 158.71 95.68 158.64 95.65 158.58 95.67 158.57 95.73 158.63 95.81 158.54 95.86 158.56 95.93"/><polygon class="i" points="157.54 91.14 157.47 91.11 157.44 91.15 157.48 91.17 157.54 91.14"/><path class="i" d="M152.85,90.1l.06-.02,.09-.03,.07-.02h.08l.03,.02-.02,.03-.08,.04-.13,.06,.09-.02,.11-.03,.11-.03,.1-.02,.1-.02,.11-.02h.33l.09-.02,.05-.03h-.1l.04-.05h-.15l-.07-.02-.1,.03h-.35l-.06,.02-.1,.02h-.1c-.09,.05-.18,.09-.28,.14l.07-.03Z"/><polygon class="i" points="151.57 91.23 151.52 91.29 151.55 91.31 151.59 91.3 151.58 91.27 151.62 91.22 151.57 91.23"/><path class="i" d="M151.75,90.66l-.04,.05,.04-.04,.08-.05,.03-.04h0s-.04,.02-.07,.03l-.04,.04Z"/><polygon class="i" points="152.38 94.41 152.41 94.3 152.49 94.22 152.51 94.1 152.42 94.12 152.43 94.21 152.32 94.33 152.38 94.41"/><polygon class="i" points="161.45 106.85 161.46 106.93 161.46 106.93 161.45 106.85"/><polygon class="i" points="160.3 99.19 160.33 99.07 160.27 98.98 160.13 98.98 160.04 99.14 160.09 99.28 160.23 99.26 160.3 99.19"/><polygon class="i" points="164.69 104.74 164.72 104.86 164.84 104.83 164.83 104.67 164.82 104.51 164.73 104.56 164.73 104.4 164.67 104.45 164.65 104.59 164.58 104.55 164.59 104.44 164.69 104.26 164.55 104.32 164.48 104.23 164.54 104.08 164.43 104.06 164.3 104.09 164.18 104.15 164.05 104.08 164.11 103.98 163.99 103.96 163.87 104.09 163.89 103.93 163.93 103.82 163.97 103.65 163.97 103.49 163.88 103.51 163.78 103.61 163.74 103.73 163.73 103.86 163.69 104.03 163.68 104.22 163.62 104.39 163.58 104.53 163.65 104.54 163.57 104.66 163.51 104.75 163.57 104.87 163.71 104.79 163.88 104.78 164.03 104.74 164.17 104.71 164.31 104.7 164.34 104.8 164.25 104.9 164.38 104.9 164.44 104.72 164.51 104.68 164.62 104.68 164.61 104.84 164.69 104.74"/><polygon class="i" points="162.41 92.17 162.47 92.23 162.6 92.23 162.54 92.18 162.41 92.17"/><polygon class="i" points="162.36 92.23 162.34 92.28 162.23 92.29 162.15 92.34 162.28 92.35 162.37 92.31 162.42 92.35 162.5 92.35 162.47 92.27 162.36 92.23"/><polygon class="i" points="164.45 115.76 164.52 115.68 164.51 115.56 164.31 115.61 164.36 115.63 164.37 115.73 164.27 115.79 164.45 115.76"/><polygon class="i" points="161.5 99.57 161.59 99.74 161.75 99.81 161.77 99.66 161.9 99.59 161.91 99.47 161.95 99.29 161.84 99.21 161.7 99.14 161.56 99.06 161.43 98.96 161.25 98.98 161.08 98.87 161.07 98.73 161.21 98.67 161.07 98.57 161.09 98.45 160.99 98.32 160.84 98.24 160.67 98.08 160.55 98.02 160.4 98 160.4 97.86 160.37 97.77 160.23 97.79 160.13 97.73 160.05 97.7 159.93 97.79 159.82 97.79 159.72 97.86 159.77 97.73 159.72 97.6 159.77 97.48 159.73 97.41 159.62 97.42 159.48 97.49 159.36 97.59 159.33 97.73 159.29 97.84 159.31 97.96 159.23 97.86 159.25 97.74 159.26 97.63 159.33 97.52 159.39 97.45 159.53 97.4 159.41 97.37 159.28 97.35 159.18 97.41 159.06 97.5 158.98 97.61 158.92 97.71 158.87 97.87 158.93 97.99 158.97 98.14 159.04 98.27 159.18 98.39 159.33 98.41 159.53 98.47 159.64 98.46 159.78 98.59 159.88 98.54 159.98 98.41 160.04 98.53 160.21 98.67 160.17 98.86 160.3 98.77 160.39 98.91 160.53 99 160.58 99.14 160.62 99.26 160.55 99.35 160.46 99.48 160.36 99.57 160.47 99.72 160.35 99.82 160.18 99.81 159.98 99.76 159.96 99.86 159.88 99.88 159.83 100 159.9 100.12 160.1 100.13 160.2 100.06 160.35 100.08 160.48 100.15 160.61 100.2 160.72 100.27 160.73 100.39 160.85 100.48 160.96 100.53 161.11 100.56 161.16 100.63 161.3 100.7 161.44 100.73 161.58 100.74 161.56 100.62 161.45 100.54 161.31 100.43 161.2 100.34 161.13 100.22 161.3 100.28 161.44 100.36 161.6 100.44 161.77 100.42 161.77 100.23 161.65 100.12 161.62 99.98 161.51 99.89 161.36 99.78 161.35 99.78 161.26 99.65 161.27 99.45 161.5 99.57"/><polygon class="i" points="164.2 114.24 164.25 114.17 164.17 114.16 164.2 114.24"/><polygon class="i" points="164.46 91.55 164.34 91.58 164.22 91.58 164.08 91.58 163.94 91.57 163.8 91.57 163.64 91.56 163.5 91.56 163.34 91.53 163.19 91.51 163.06 91.47 162.91 91.44 162.77 91.42 162.67 91.47 162.71 91.53 162.86 91.56 162.97 91.54 163.11 91.59 163.22 91.66 163.39 91.7 163.52 91.71 163.61 91.72 163.76 91.77 163.83 91.74 164 91.74 164.16 91.75 164.21 91.71 164.33 91.74 164.49 91.75 164.55 91.72 164.67 91.76 164.79 91.73 164.81 91.64 164.83 91.57 164.77 91.48 164.68 91.38 164.59 91.35 164.61 91.45 164.56 91.51 164.46 91.55"/><polygon class="i" points="164.27 114.1 164.25 114.17 164.32 114.15 164.27 114.1"/><polygon class="i" points="164.11 95.68 164.14 95.63 164.01 95.61 164.11 95.68"/><polygon class="i" points="159.62 113.87 159.48 113.84 159.35 113.89 159.33 113.93 159.43 113.93 159.52 114.03 159.64 114.05 159.74 114.01 159.84 114.04 159.94 114.04 159.89 113.94 159.77 113.9 159.62 113.87"/><polygon class="i" points="164.43 93.7 164.28 93.66 164.13 93.6 163.97 93.55 163.85 93.53 163.78 93.47 163.91 93.46 163.98 93.42 164.14 93.47 164.17 93.39 164 93.28 163.92 93.36 163.83 93.39 163.71 93.41 163.56 93.43 163.59 93.31 163.5 93.24 163.35 93.19 163.26 93.19 163.26 93.27 163.22 93.34 163.31 93.41 163.29 93.52 163.39 93.53 163.37 93.59 163.48 93.63 163.43 93.69 163.45 93.81 163.45 93.81 163.57 93.83 163.76 93.84 163.92 93.8 163.92 93.71 164 93.79 164.13 93.8 164.28 93.76 164.43 93.7"/><polygon class="i" points="162.08 92.1 162.02 92.17 162.13 92.18 162.2 92.16 162.16 92.11 162.08 92.1"/><polygon class="i" points="162.57 92.32 162.66 92.32 162.59 92.27 162.57 92.32"/><polygon class="i" points="162.29 92.1 162.2 92.16 162.32 92.21 162.41 92.17 162.35 92.1 162.29 92.1"/><polygon class="i" points="174.22 97.26 174.26 97.22 174.35 97.3 174.38 97.31 174.38 97.24 174.43 97.25 174.36 97.14 174.4 97.12 174.3 97.07 174.23 97.03 174.23 96.96 174.15 96.94 174.12 96.99 174.1 97.05 174.15 97.16 174.22 97.26"/><polygon class="i" points="151.64 90.78 151.6 90.81 151.58 90.86 151.62 90.81 151.64 90.78"/><polygon class="i" points="151.51 94.85 151.44 94.94 151.41 95.02 151.46 95.07 151.52 95.05 151.55 94.97 151.53 94.91 151.51 94.85"/><polygon class="i" points="159.72 90.59 159.76 90.56 159.64 90.53 159.62 90.59 159.72 90.59"/><polygon class="i" points="174.57 96.93 174.53 96.8 174.48 96.75 174.53 96.86 174.49 96.82 174.52 96.93 174.51 96.99 174.55 97.09 174.52 97.07 174.53 97.17 174.61 97.24 174.59 97.16 174.59 97.08 174.6 97.05 174.57 96.93"/><polygon class="i" points="150.45 93.1 150.38 93.16 150.37 93.2 150.44 93.13 150.45 93.1"/><polygon class="i" points="173.83 99.08 173.93 99.19 174.01 99.18 173.95 99.06 173.96 98.99 173.88 98.89 173.8 98.8 173.72 98.72 173.63 98.66 173.54 98.66 173.59 98.8 173.6 98.87 173.58 98.89 173.65 98.95 173.74 98.99 173.83 99.08"/><polygon class="i" points="173.57 99.94 173.61 100.12 173.65 100.06 173.71 100.04 173.65 99.91 173.57 99.94"/><polygon class="i" points="151.63 99.86 151.56 99.79 151.51 99.69 151.4 99.83 151.39 99.94 151.31 100.08 151.27 100.22 151.27 100.41 151.34 100.26 151.34 100.15 151.42 100.09 151.49 99.94 151.63 99.86"/><polygon class="i" points="149.56 94.62 149.62 94.54 149.57 94.54 149.56 94.62"/><polygon class="i" points="149.63 94.42 149.68 94.35 149.59 94.4 149.63 94.42"/><polygon class="i" points="155.38 118.21 155.48 118.16 155.4 118.06 155.3 117.95 155.28 118.05 155.38 118.13 155.28 118.16 155.38 118.21"/><polygon class="i" points="151.57 101.43 151.51 101.31 151.43 101.17 151.39 101.03 151.31 101.02 151.28 101.2 151.32 101.34 151.35 101.48 151.3 101.53 151.34 101.63 151.35 101.74 151.41 101.8 151.37 101.86 151.42 102 151.47 102.11 151.57 102.12 151.57 101.96 151.55 101.78 151.55 101.61 151.57 101.43"/><polygon class="i" points="150.96 96.83 151.03 96.89 151.11 96.81 151.11 96.74 151.21 96.81 151.26 96.72 151.14 96.69 151.04 96.66 150.88 96.64 150.78 96.8 150.86 96.84 150.96 96.83"/><polygon class="i" points="152.52 91.89 152.44 91.86 152.44 91.96 152.51 91.94 152.52 91.89"/><polygon class="i" points="169.44 94.45 169.53 94.53 169.58 94.52 169.52 94.44 169.46 94.37 169.44 94.45"/><polygon class="i" points="169.74 94.95 169.67 94.88 169.72 94.98 169.8 95.05 169.91 95.07 169.85 94.99 169.74 94.95"/><polygon class="i" points="158.06 112.93 158.16 112.91 158.12 112.82 158.06 112.77 158 112.83 158.03 112.88 158 112.91 158.06 112.93"/><polygon class="i" points="170.52 96.15 170.48 96.1 170.46 96.15 170.47 96.24 170.54 96.23 170.52 96.15"/><polygon class="i" points="174.38 98.35 174.28 98.23 174.2 98.1 174.23 98.25 174.25 98.39 174.24 98.49 174.21 98.53 174.2 98.62 174.25 98.73 174.33 98.75 174.33 98.69 174.4 98.63 174.42 98.56 174.48 98.56 174.5 98.46 174.43 98.38 174.38 98.35"/><polygon class="i" points="154.87 89.64 154.78 89.66 154.77 89.7 154.87 89.67 154.87 89.64"/><polygon class="i" points="149.59 94.84 149.65 94.83 149.59 94.78 149.59 94.84"/><polygon class="i" points="173.78 96.19 173.73 96.15 173.76 96.2 173.78 96.19"/><polygon class="i" points="174.1 95.58 174.05 95.52 174.02 95.45 173.99 95.44 173.87 95.29 173.95 95.41 174 95.5 174.04 95.59 174.09 95.65 174.14 95.75 174.19 95.77 174.16 95.68 174.1 95.58"/><polygon class="i" points="174.29 96.39 174.23 96.31 174.16 96.22 174.24 96.36 174.29 96.39"/><polygon class="i" points="170.27 96.22 170.29 96.31 170.4 96.32 170.41 96.25 170.33 96.19 170.27 96.22"/><polygon class="i" points="173.36 98.45 173.29 98.41 173.18 98.32 173.25 98.42 173.27 98.53 173.35 98.62 173.43 98.66 173.52 98.65 173.43 98.54 173.36 98.45"/><polygon class="i" points="170.32 96.01 170.27 95.92 170.16 95.89 170.21 96 170.25 96.11 170.38 96.15 170.41 96.09 170.37 96 170.32 96.01"/><polygon class="i" points="169.32 94.39 169.38 94.43 169.41 94.43 169.38 94.36 169.32 94.39"/><polygon class="i" points="160.53 112.82 160.64 112.71 160.5 112.64 160.53 112.82"/><polygon class="i" points="168.8 96.88 168.69 96.81 168.73 96.87 168.8 96.88"/><polygon class="i" points="161.13 112.89 161.03 112.96 161.31 112.95 161.13 112.89"/><polygon class="i" points="160.93 107.13 160.81 107.19 160.69 107.22 160.55 107.25 160.54 107.32 160.7 107.29 160.85 107.27 161 107.19 160.93 107.13"/><polygon class="i" points="165.52 91.71 165.42 91.7 165.41 91.79 165.53 91.82 165.64 91.78 165.52 91.71"/><polygon class="i" points="149.78 95.65 149.83 95.7 149.91 95.66 149.91 95.56 149.83 95.6 149.75 95.58 149.78 95.65"/><polygon class="i" points="166.09 97.56 165.96 97.54 165.88 97.58 165.94 97.63 165.89 97.68 165.95 97.75 165.98 97.87 166.06 97.83 166.09 97.74 166.18 97.72 166.19 97.85 166.17 98.01 166.29 97.9 166.44 97.96 166.47 98.11 166.62 97.98 166.75 97.95 166.89 97.88 166.89 97.73 166.94 97.64 166.92 97.49 166.95 97.34 166.88 97.18 166.74 97.07 166.62 97.1 166.47 96.99 166.43 97.08 166.34 97.08 166.38 97.18 166.37 97.27 166.28 97.29 166.23 97.38 166.26 97.46 166.16 97.45 166.27 97.56 166.23 97.67 166.09 97.56"/><polygon class="i" points="160.74 113.11 160.69 113.18 160.83 113.18 160.88 113.06 160.83 113.13 160.74 113.11"/><polygon class="i" points="159.72 111.58 159.6 111.46 159.66 111.72 159.72 111.58"/><polygon class="i" points="160.2 108.86 160.05 109.01 160.16 108.96 160.2 108.86"/><polygon class="i" points="159.28 111.55 159.35 111.53 159.2 111.49 159.28 111.55"/><polygon class="i" points="159.47 111.95 159.4 111.95 159.42 112.05 159.34 112.12 159.48 112.24 159.55 112.39 159.6 112.29 159.53 112.2 159.53 112.1 159.47 111.95"/><polygon class="i" points="159.41 111.51 159.35 111.53 159.53 111.57 159.5 111.51 159.41 111.51"/><polygon class="i" points="159.99 111.97 159.82 111.86 159.99 112.11 159.99 111.97"/><polygon class="i" points="168.01 97.11 167.95 96.99 167.92 97.09 167.96 97.14 168.01 97.11"/><polygon class="i" points="171.06 98.65 171.04 98.51 171.03 98.5 170.94 98.02 170.94 98.01 170.9 97.89 170.81 97.79 170.72 97.76 170.65 97.81 170.64 97.81 170.15 97.79 170.14 97.78 170.04 97.75 169.91 97.68 169.81 97.66 169.73 97.71 169.7 97.79 169.66 97.69 169.6 97.58 169.52 97.47 169.45 97.39 169.36 97.34 169.32 97.43 169.28 97.5 169.27 97.6 169.18 97.49 169.14 97.34 169.07 97.32 169.04 97.43 168.99 97.53 169.08 97.64 169.14 97.75 169.21 97.82 169.14 97.84 169.16 97.91 169.24 97.91 169.28 97.83 169.38 97.97 169.46 98.04 169.46 97.94 169.55 98.03 169.59 98.16 169.63 98.1 169.7 98.16 169.64 98.02 169.74 98.04 169.86 98.19 169.95 98.22 169.96 98.1 169.96 97.98 170.04 98.09 170.15 98.1 170.17 98.04 170.26 98.16 170.35 98.24 170.34 98.32 170.27 98.42 170.33 98.45 170.39 98.55 170.43 98.48 170.54 98.57 170.55 98.67 170.57 98.79 170.64 98.82 170.66 98.72 170.71 98.67 170.8 98.65 170.78 98.52 170.85 98.64 170.83 98.7 170.79 98.78 170.86 98.92 170.9 99.05 170.94 99.19 170.99 99.14 170.95 99 171.04 98.92 170.96 98.82 170.98 98.71 171.06 98.65"/><polygon class="i" points="177.86 106.5 177.85 106.52 177.85 106.65 177.86 106.61 177.86 106.5"/><polygon class="i" points="144 102.32 143.97 102.32 143.96 102.38 143.97 102.43 144 102.38 144 102.32"/><polygon class="i" points="143.96 102.72 143.94 102.81 143.95 102.9 143.99 102.75 143.96 102.72"/><polygon class="i" points="149.62 95.45 149.72 95.51 149.75 95.54 149.81 95.51 149.8 95.45 149.62 95.45"/><polygon class="i" points="143.82 103.69 143.79 103.74 143.79 103.83 143.82 103.81 143.84 103.82 143.86 103.87 143.89 103.87 143.89 103.79 143.92 103.72 143.92 103.64 143.92 103.57 143.92 103.49 143.88 103.56 143.86 103.56 143.82 103.69"/><polygon class="i" points="143.94 103.26 143.92 103.31 143.94 103.35 143.96 103.37 143.97 103.26 143.96 103.23 143.95 103.18 143.94 103.26"/><polygon class="i" points="168.96 97.8 169.04 97.87 169.09 97.94 169.03 97.77 168.93 97.66 168.96 97.8"/><polygon class="i" points="173.6 105.66 173.58 105.77 173.54 105.83 173.62 105.88 173.63 105.79 173.6 105.66"/><polygon class="i" points="173.89 105.06 173.87 105.13 173.88 105.21 173.91 105.14 173.89 105.06"/><polygon class="i" points="170.33 98.77 170.25 98.67 170.12 98.58 170.02 98.52 169.98 98.38 169.86 98.3 169.76 98.28 169.69 98.34 169.62 98.41 169.61 98.53 169.68 98.66 169.75 98.64 169.79 98.72 169.74 98.79 169.69 98.87 169.75 98.97 169.82 98.94 169.84 99.05 169.95 99.06 169.99 99 170.07 99.16 170.16 99.29 170.11 99.36 170.23 99.42 170.32 99.41 170.37 99.29 170.39 99.16 170.37 99 170.41 98.87 170.33 98.77"/><polygon class="i" points="173.81 105.71 173.77 105.65 173.72 105.68 173.73 105.74 173.77 105.79 173.81 105.71"/><polygon class="i" points="173.93 105.47 173.96 105.36 173.88 105.21 173.89 105.41 173.93 105.47"/><path class="i" d="M170.88,91.98l-.03-.02h0l.02,.02Z"/><path class="i" d="M171.63,116.98l-.02-.09-.03-.09-.05-.08-.13,.05-.12,.09-.12,.05-.07-.02-.12,.02-.08-.02-.08-.03h-.24l-.13-.02-.13,.06-.13,.1-.13,.06h-.13l-.13,.07h-.13l-.13,.05-.13,.11-.15,.1,.04-.12-.06-.06-.04-.07-.13,.09-.04-.05-.18,.04-.14,.02h-.16l-.16,.05-.09,.07-.09,.19h-.07l.05-.12,.04-.16-.16,.02-.14,.07-.14,.03-.12,.09v.12l-.05,.16-.07-.12-.17,.1,.03-.13,.05-.12,.12-.11,.09-.1,.12-.15,.02-.18-.16,.04-.05-.14-.1-.12v-.13l-.15-.07-.09-.03-.15-.04-.12-.04-.15-.02h-.36l-.15,.02-.15,.04-.14,.06-.14,.04-.17,.02-.07-.06h0l-.1-.04-.15-.05-.12,.05,.02-.11-.06-.09-.15-.05-.15-.05-.17-.05-.22,.08,.05-.15-.06-.12-.17-.02-.13-.02-.1,.04-.11-.09-.1-.07,.25-.08-.17,.03-.2,.03-.17,.02-.15,.13-.15,.06h-.17l-.13-.03-.05-.06h-.12l-.13,.05-.17,.02-.18,.04-.05-.08-.03-.1-.12-.05h-.28l-.06-.17-.12,.07,.05,.11-.12,.07-.13,.05-.12,.05v.15l.11,.14v.14l-.18,.05-.03-.1-.07-.08,.07-.13,.07-.09-.05-.1-.08-.12,.15-.05,.07-.11-.05-.06-.11-.02-.1,.07-.07,.09-.13,.05-.1,.07-.15,.07-.2-.02-.07,.09-.12-.02-.13,.04-.08,.08-.02,.13v.13l-.13,.02-.08,.1-.15,.1v.19l-.13-.13-.1-.09-.1-.09-.13-.09-.13-.03-.12-.04h-.15l-.08,.07-.15,.03-.15,.03-.18,.03-.1-.07h-.12l-.05-.12-.13-.07-.12-.09-.07-.11-.07-.11-.05-.11,.05-.1v-.13l.06-.14v-.28l.09-.1v-.2l-.04-.05-.12-.05h0l-.11-.13-.12-.04-.1-.04h-.15l-.15-.04-.15,.02h-.15l-.17-.07-.18,.04-.12-.09-.12-.07,.15-.06,.09-.17v-.13l.05-.22,.06,.12,.08-.12,.04-.16,.03-.14,.03-.14,.06-.13,.13-.1v-.11l-.06-.06-.14-.02-.12-.04h-.14l-.15,.02h-.28l-.1,.02-.04,.16-.03,.11-.06,.08v.12l-.11,.03-.1,.05,.02,.07h-.17v-.04l-.16-.06-.17,.03h-.33l-.09-.03-.08-.11-.13-.08-.13-.08-.08-.14-.05-.13-.05-.16-.07-.12-.05-.11-.03-.13,.06-.08-.12-.13-.02-.15,.06-.1,.02-.14,.02-.14,.02-.14,.07-.13,.06-.13,.09-.1v-.13l.03-.14-.02-.15,.05-.14,.1-.07,.15-.06,.14-.07h.13l.1-.04,.1-.05-.04-.14,.09-.03-.02,.12,.14-.04h.11l.15,.02,.12,.08,.12,.05,.12-.05,.11,.13v.1l.13,.05h.15l.1-.03,.08,.04,.06,.09,.05-.04-.12-.12v-.05l.08-.04,.03-.07-.11-.02h-.11l-.08-.03h0l.08-.12,.12,.1,.14-.05,.11,.02,.13,.04,.07-.06,.03,.11,.13,.02h.26l.08,.07,.13,.07,.03,.13h.13l.12-.07h.13l.11,.1,.1,.18,.06,.03,.03,.15-.03,.12v.1l.09-.02-.05,.14v.1l.1,.1,.06,.13,.06,.15,.11,.11,.04,.12,.12-.02,.07-.04,.08-.14,.03-.17v-.17l-.05-.17-.06-.18v-.1l-.08-.15-.03-.15-.06-.15v-.15l-.02-.15,.07-.14,.07-.15,.14-.12,.13-.07,.13-.09,.09-.1,.07-.1,.13-.07,.11-.02,.11-.1,.11-.1,.15-.02,.06-.07h-.12l.13-.1h.09l.04-.07v-.1h-.23l.1-.05,.09-.03,.06,.03-.02-.13-.04-.1-.1-.1v-.1l.03-.13-.14-.11,.12,.03v-.1l-.03-.15,.04-.1,.1-.05-.04,.1v.1l-.04,.13,.1,.05-.02,.08h.08l-.04,.1-.04,.15,.06-.02,.04-.15,.08-.13,.06-.08-.1-.18-.04-.15,.08,.05,.06,.1,.12-.1,.07-.15,.04-.15h0l-.08-.06,.07-.1,.12-.08,.12-.05h.23l.11-.07,.04-.1,.06,.07,.09-.06v.05l.15-.06v-.03h-.12l-.05-.12-.07-.04,.05-.08-.02-.08,.05-.11,.07-.1v-.05l.1-.06,.13-.06,.07-.13,.06,.05,.12-.06,.11-.06,.1-.09v-.11l.15-.02,.14-.07,.15-.12v.11l.14-.05-.13,.12-.08,.06-.12,.12-.04,.13,.05,.12,.12,.07,.1-.12,.1-.12,.06-.11,.11-.02,.13-.09,.2-.11,.17-.08,.02-.11,.11-.07,.11-.12-.16-.07v-.16l-.07-.04-.05,.14-.08,.14,.02,.13h-.11l-.12,.06h-.14l-.17-.08-.13-.04-.09-.14-.04-.17,.02-.13-.16,.07-.16-.14,.2-.02,.1-.07,.11-.09-.02-.1-.07-.07-.14-.04-.14,.04-.15,.04-.12,.09-.11,.06-.13,.09-.11,.11-.08,.13-.08,.11-.08,.11-.14,.06,.08-.11,.06-.11,.08-.11,.06-.11,.08-.13,.11-.11,.12-.14h.13l.02-.14,.07-.11,.14-.07,.11-.02,.13-.02,.14-.04h.23l.12-.03,.11,.04,.14-.05,.18-.03,.07-.12,.06-.11,.06-.12,.14-.11,.18-.06,.09-.13,.07-.1-.11-.18v-.13l-.16-.12-.13,.03-.05-.12h-.18l.12-.12-.11-.06h-.16l-.08-.08h-.19l-.06-.11-.16-.05-.09-.09-.03-.15,.05-.11-.09-.06-.02-.1-.1-.09-.11-.14-.09-.14-.12-.13-.1-.14-.07-.09-.06,.11-.05,.08,.07,.09-.05,.13-.11,.09-.04,.1-.15,.09-.13-.17-.09-.02-.09-.12v-.25l-.06-.12,.02-.13-.11-.02h-.12l-.12-.06,.03-.1-.11-.07-.1-.1-.11-.07-.17,.05h-.1l-.13-.05-.14-.03-.1,.07v.12l.07,.08-.04,.12-.06,.12,.07,.08,.02,.15v.13l-.09,.12-.11,.02-.02,.1,.09,.1,.09,.05,.05,.17,.02,.13,.04,.18v.2l-.1,.12-.14,.12-.14,.1-.14,.07,.05,.13,.04,.13v.33l.07,.15-.12,.15-.17,.09v.1l-.11-.11-.05-.13-.09-.11-.07-.14-.11-.14,.05-.15v-.12l-.02-.13h0l.07-.23-.14-.09-.17-.02-.18-.02-.15-.15-.13-.07-.11-.07-.07-.14-.13-.13-.15-.08-.14-.13-.13,.03-.11,.03,.02-.1-.02-.14,.03-.12-.02-.19-.09-.05h-.11v-.13l.03-.14,.07-.17,.07-.11,.07-.11,.11-.13,.11-.1,.11-.03,.04-.14,.14-.02,.15-.02,.02-.14,.13-.15,.2,.04,.13-.13,.13-.13,.03-.14,.16-.17-.07-.11h.15l.04,.07,.16,.06,.15-.1,.16-.11,.05-.16-.14-.08,.02-.14,.13-.06,.02-.17-.15-.05v-.09l-.14-.06-.13-.02-.03,.14-.02,.16-.03,.16-.14,.08-.02,.12-.1,.03-.07-.18,.05-.14,.03-.12-.07-.15-.16,.17-.04-.15-.04-.13-.09-.09,.15-.09-.02-.15-.04-.1-.04-.13v-.15l.08-.07v-.1l.08-.03,.1,.02,.08-.1,.09-.1,.06-.06-.07-.07-.15-.08h-.18l-.07,.11-.02,.11-.03,.13-.04,.11-.05,.13-.1,.05-.09,.13-.11,.13,.04,.19,.13,.15-.11,.1v.15l-.15,.11h-.04l-.08,.12-.08-.12,.05-.15h0l.18-.07-.02-.18-.1-.17-.12,.11-.14,.05,.11,.16-.11,.07-.07,.15-.15-.02-.16-.11-.09-.12-.12-.14-.03-.18h-.14l-.15-.03-.12,.05,.07,.11-.1,.09-.08-.09-.06-.11-.15-.02-.16-.03-.08-.1-.11-.06,.08-.07,.11,.02,.03-.13-.07-.12-.12-.09-.06-.12-.06-.13v-.14l-.13-.09-.13,.07-.05-.06,.12-.13-.19,.07-.02-.08,.08-.13,.03-.17-.16,.08-.1-.02,.07-.11-.14-.03-.16-.03h-.11v-.09l-.07-.05h-.13l-.11,.08v-.14l.02-.12v-.12l-.05-.11,.02-.09,.02-.11-.05-.08-.06-.06,.02-.11-.04-.09,.02-.14-.03-.09-.03-.08,.09-.12-.04-.13,.07-.06,.03-.12-.15-.04-.03-.1-.13-.07-.03-.07-.13-.05h-.24l-.05-.08-.02-.09-.14,.02-.1,.1-.09,.13-.14,.09-.09,.12-.11,.1h-.1v-.14l.11-.05v-.07l-.07-.07-.06-.08-.12-.06-.05,.07-.03,.09h-.09l-.09,.06-.05,.15,.02,.11-.04,.11,.07,.04,.05,.06h0l-.12,.03-.11,.09-.14,.03-.03-.11-.12-.03,.07-.12-.07-.05-.09,.02-.14-.02h-.18l-.12,.14-.14,.09-.13,.12-.11,.1v.09l.12,.04-.15,.12h-.09l-.11,.1,.05,.04,.02,.16-.12,.14,.09-.02v.09l.02,.06-.15,.07-.16,.06-.1-.03-.12-.02-.1-.06h-.13l-.03-.1-.08-.08-.11-.02-.07-.09-.11-.07-.06,.05,.09,.09,.09,.06,.05,.08,.07,.04,.05,.09,.08,.08,.06,.08,.11-.02,.08,.05,.11,.07h.12l.13,.04,.12,.05h.22l.02-.11,.1-.02,.09,.04h.12l.14-.05h.11l.12,.06,.03,.08h-.1l-.08-.07-.16,.08-.15,.02-.03,.08h-.1l.06,.09,.11,.03,.12,.02,.04,.09,.15-.03,.14-.11v.11l.03,.09-.03,.11-.03,.16v.14l.05,.1,.06,.1v.14l.03,.1h.1l-.11,.12v.13l-.05,.16-.03,.13v.13l-.09,.14-.04,.16-.09,.14-.09,.17,.15-.14,.11-.15,.11-.1,.02-.14,.04,.05,.11-.07-.07,.12h0l-.08,.07-.09,.13-.09,.09h.1l.09-.05-.04,.1-.04,.11-.04-.12-.12,.02-.1,.12,.06,.04-.09,.09-.05,.1-.02,.09v.12l-.05,.13,.12-.13,.08-.18,.05-.14v.09l.05,.05-.08,.06-.06,.13-.03,.12v.12l.11,.03-.14,.08-.03,.08h-.11l-.06,.15v.12l-.04,.2,.03,.14-.07,.14v.12l-.08,.08,.02,.16,.06,.12,.05,.14v.14l.03,.15,.03,.13h.12l-.09,.12v.25l-.06,.03-.03,.14-.12,.1,.02-.05h-.09l.13-.07-.04-.13-.09-.07-.07-.16-.06,.06-.02,.08-.04,.13-.05,.15-.04,.09-.05,.09,.08,.13-.11-.09-.06,.09-.06,.12-.09,.09-.08,.13-.09,.12-.12,.13-.13,.12-.07,.14-.02,.12-.05,.15-.09,.12-.12,.1-.04,.06v.22l-.05,.09-.05,.12v.13l.03,.12-.06,.08,.07,.08,.03-.07,.04,.07-.05,.02-.02,.14-.03-.12-.05,.12v.12l.06,.04-.06,.11-.05,.05,.04,.15v.15l.03,.2-.06,.13h0l.12,.14,.08,.12,.07,.11,.06,.04-.02,.1,.06,.04,.06,.15v.14l-.02,.16v.43l-.02,.07,.04,.11-.04,.12,.04,.05-.04,.17,.08,.11,.06,.17,.04,.13,.04,.13-.04,.12-.11,.02-.12-.09,.08,.15v.11l.06,.09,.07,.12,.09,.05,.04,.13,.09,.13v.17l-.02,.14-.09,.06,.13,.15,.07,.14,.07,.16,.09,.15,.03,.22,.17-.07-.05-.15-.06-.19-.09-.05-.03-.14,.05-.02-.05-.13,.03-.09-.04-.18v-.16l-.07-.19-.03-.18-.06-.14v-.16l-.03-.15-.05-.16-.03-.15-.06-.12-.02-.12,.06-.1v-.14l.03-.13,.05-.08,.09,.14,.08,.02,.04,.11,.07,.09-.04,.12v.27l.02,.15v.17l.07,.19,.07,.2,.12,.09-.04,.14,.09,.18,.03,.12,.06,.03,.03,.12-.06,.07-.02,.07,.08,.12,.14,.14,.04,.2,.07,.14,.08,.13,.07,.18,.06,.12,.08,.16,.06,.12v.2l.07,.1-.02,.09-.1,.06,.03,.09-.1,.03,.06,.17,.08,.17h0l.14,.13,.11,.14,.07,.14,.16,.13,.15,.08,.07,.02,.1,.13,.14,.17,.13,.09,.13,.09,.12,.11,.13,.07,.13,.11,.13,.11,.16,.07,.16,.09,.15,.09,.17-.02,.15-.03,.14,.04,.12,.05,.11,.07,.11,.09,.06,.08,.11,.14,.11,.11,.09,.11,.14,.1,.14,.07,.14,.03,.14,.09,.07,.08,.12,.02,.14,.09,.12,.02,.17,.03,.05-.06,.09,.13-.1-.02,.09,.12,.09,.1,.12,.13,.12,.1,.12,.1v.11l-.03,.1,.04,.11,.1,.04,.05,.05,.11-.07,.07,.09,.17,.11,.1,.09-.03,.12,.15,.04,.07,.07,.08-.03,.15,.03,.15,.06,.08,.08h.15l.03,.16h.13l.15-.06-.13-.09-.02-.09,.13-.03,.1-.06,.08-.1h.1l.13,.07,.07,.11h.1l-.08,.08,.07,.14,.13,.11,.1,.11-.02,.1,.02,.16v.12l.03,.12-.05,.12,.1,.08-.1,.09-.08,.13h-.18l-.11,.1,.03,.1h-.13l.05,.11-.16,.05-.2,.06-.02,.14h0l-.13,.07v.11l-.13,.03,.05,.15v.1l-.05,.03,.11,.04,.13,.11,.03-.1h.12l-.05,.07-.05,.1-.1,.03-.15,.06-.15,.07v.08l.05,.1,.11,.11-.1,.06,.1,.06,.16,.06,.1,.07,.1,.09,.06,.11,.15,.07,.1,.1,.05,.09,.05,.09,.05,.09,.15,.12,.05,.09,.1,.09,.05,.06,.1,.06,.05,.08,.1,.11-.02,.08,.13,.08,.1,.05,.1,.05,.2,.07h.15l.14,.07,.2,.05h.1l.15,.05,.15,.03,.09,.06,.1,.02,.14,.05v.07l.02,.08,.04,.09-.03,.07v.06l.02,.06-.03,.06-.03,.06-.07,.06v.11l-.04,.06,.02,.05v.04l-.07,.04,.04,.06-.1,.07v.05l-.08,.05-.02,.05-.07,.04,.04,.03,.02,.05-.09,.02-.03,.04,.02,.04,.02,.04v.02l.04,.02-.09,.05,.02,.03-.06,.02-.03,.03-.07,.03-.09,.03-.05,.03-.04,.02h-.06v.03h-.11l-.05,.03,.06,.02h0l.02,.03h0c1.33-.02,2.63-.21,3.87-.52l.07-.02,.11-.04v-.02l-.09,.02h-.04l.09-.05h-.06l-.19,.02h-.02l.06-.04h.1l.16-.04h.07l.13-.03,.14-.04,.16-.04,.12-.04,.13-.05,.12-.05,.04-.03,.14-.06,.13-.07,.07-.05,.12-.05,.14-.06,.14-.06,.11-.07,.12-.07,.07-.06,.12-.07,.13-.08,.12-.07,.07-.04,.07-.06,.05-.06v-.05l.05-.07,.03-.06,.13-.08,.13-.09,.15-.09,.13-.09,.13-.07,.17-.1h.07l.14-.12,.12-.05-.02-.03,.17-.08,.12-.04,.12-.05,.13-.06,.12-.05,.03-.06,.13-.09,.14-.09,.03-.07,.07-.09,.15-.13,.07-.09,.15-.13,.05-.09,.03-.07,.05-.09,.09-.09,.03-.08,.05-.1,.07-.11v-.07l.03-.08v-.07l.05-.09,.05-.12,.13-.12,.12-.13,.12-.16,.08-.12,.09-.13,.07-.08,.13-.13,.07-.11,.11-.14,.07-.11,.07-.13,.07-.13,.04-.14v-.09Zm-12.3-10.27l-.14,.07-.16,.07-.13,.04-.14,.07h-.26l-.15-.09,.11-.07h.13l.16-.05,.08-.09,.13-.02,.09,.04,.08-.07h.15l.15,.02-.1,.1Zm.11-.41l.15-.02,.11-.02,.14,.03,.08-.08,.13-.05-.04,.1v.15l-.13,.05-.13,.02-.13-.03h-.13l-.15,.04-.11-.03,.08-.13,.13-.04Zm-.99-.83l.14,.04h.14l.14,.05,.19,.07,.1,.16,.1,.19-.08,.1-.18-.09-.12-.14,.03,.11-.05,.12-.07,.15v.18l-.17,.07-.04-.16-.04-.16-.11,.04-.1,.09v-.11l.14-.14,.02-.18-.04-.11-.1-.06-.08-.06h-.11l-.09,.13-.17,.05-.06,.12-.07,.12v.41l-.06,.17-.07,.09-.1,.04h-.1l-.05-.18,.02-.17v-.13l.06-.12,.06-.17,.04-.1,.07-.12-.18,.08,.09-.12,.09-.12,.09-.09h.27l.11-.03,.09,.04,.18,.02-.03-.11h.11Zm-1.6-.48l.14-.07,.12-.08,.14-.02,.1-.06,.09-.09,.14-.05,.08-.09,.14,.1,.16,.03,.04,.16,.07,.11,.15,.02v.1l.04,.09-.03,.12,.04,.13h-.11v-.09h-.16l-.19,.06-.14-.02-.07-.14h-.14l.02-.1,.15-.08-.1-.02-.17,.1-.17,.05-.17,.04-.06-.14-.15,.05-.1-.02,.12-.08Zm-1.54-4.38l-.13-.06h-.12l-.09,.06-.11-.09,.12-.05,.1-.04,.13-.08,.06,.03,.04,.1,.08,.04,.05,.08h-.13Zm.52,2.87l.04,.09v.14l-.14-.02,.05-.09-.03-.11,.04-.1-.08-.16-.07-.11,.05-.14,.07-.06-.05-.09-.1,.05v-.16l.15,.05,.08,.13-.04,.1-.06,.06-.03,.18,.1-.02,.08,.05-.07,.11v.11Zm.32-.82l.09,.05v.48l.02,.2,.04,.14-.1,.19-.12,.02,.04-.12,.05-.12,.05-.12-.1,.02,.03-.15-.13-.04,.03-.1-.06-.1v-.27l.07-.11,.1,.03Zm-.37-1.07l.08-.08v-.14l.09-.07,.11-.1v.17l-.1,.04-.05,.12-.05,.12-.17,.02,.09-.08Zm-.68-3.65l-.16-.08-.13-.09,.16,.02,.14,.03,.14,.05h.18l.06,.11h-.12l-.12,.02,.1,.11,.14,.07-.1,.06-.11,.07-.12-.13-.03,.15-.26,.02,.15-.08,.05-.09-.15,.02-.08,.06-.13-.1,.17-.1h.1l.14,.02-.03-.12Zm-.37,1.62l.1-.03,.07-.08,.1,.03v-.2l.14,.07v.09l.05,.09,.09,.02,.11-.06,.08-.04h.12l.08,.05,.09,.1-.14-.07v.08l-.14-.04h-.14l-.13,.12h-.12l-.12-.02-.07,.07-.05-.05h-.12l-.09-.07-.05-.15,.13,.08Z"/><g><path class="i" d="M169.08,90.77s-.07-.03-.1-.05l.06,.04h.05Z"/><path class="i" d="M168.96,90.71l-.09-.04h0s.07,.04,.11,.06h-.02Z"/><path class="i" d="M175.17,96.63l-.04-.04h-.05l-.04-.02-.05-.05-.04-.02-.04-.07,.05,.04,.05,.04h.03l.03,.03h.02v-.03s-.03-.06-.05-.09l-.04-.05-.11-.14-.11-.15,.07,.08,.09,.11,.06,.08c-.89-1.35-1.96-2.56-3.17-3.61h-.02l-.08-.06-.06-.06-.06-.04-.11-.07-.1-.08-.08-.08,.05,.07v.03h-.08v.06h-.05l-.07-.02-.06-.03h-.05l.02,.05-.06-.02-.12-.07-.13-.08-.11-.06-.05-.07-.09-.05-.07-.07h-.04l-.1-.09-.1-.09-.17-.12-.05-.05-.08-.08-.06-.06-.02-.05v-.04h.07l.06,.02v-.03l.08,.07,.09,.08,.03,.06,.12,.09,.13,.09h.05l.05,.06,.08,.09,.06,.03-.05-.06,.03-.02h.06v-.03l-.1-.09h.02l.12,.07,.06,.02h.04l-.06-.03-.1-.07-.11-.09h.03v-.02c-.36-.25-.72-.49-1.09-.72h.01l.1,.08-.09-.03h-.01l-.08-.02-.13-.07-.08-.03-.07-.04-.07-.05-.1-.04-.02-.03h-.05l-.13-.09v-.02l-.16-.08,.11,.05,.12,.05h.04v-.05c-2.55-1.42-5.46-2.26-8.57-2.26-.06,0-.13,0-.19,0h-.11l-.08,.03-.1,.02-.1,.02-.05,.02-.05,.02-.05,.03v.02l-.05,.02h-.07l.03-.04,.02-.03v-.02l.07-.03,.12-.03,.09-.02c-2.17,.07-4.25,.52-6.16,1.31l-.02,.02-.05,.05h.04l.03,.02h.24v.04l.02,.02,.07-.02h.06l.02,.03,.12-.04,.11-.04h.05l.12-.05,.1-.05,.02-.05,.12-.07v.03h.05l.08-.03v-.04h.06l.06,.02,.1-.05,.12-.04h.04l-.08,.06-.04,.06-.05,.05-.04,.06v.05l-.03,.04-.04,.06-.04,.05v.07l-.05,.06v.03l-.03,.05-.11,.07-.12,.07-.11,.06-.07,.02-.03,.05-.14,.06-.07,.06-.09,.05h.02l.04,.02-.04,.04-.11,.05-.09,.05-.04,.04-.09,.02,.02-.05-.08,.02-.07,.06-.07,.08v.04l-.1,.06-.1,.1,.09-.03,.08-.06,.07,.04,.03,.05v.07l.03,.05,.03,.06-.05,.09-.06,.08-.09,.05-.03,.07-.08-.05h-.08l-.1,.03v.07l.02,.06,.03,.05-.03,.06h.09l.07,.03-.05,.1-.06,.03v-.06h-.12l-.12-.03-.06-.02,.03-.07v-.07l-.04-.03-.04-.06-.02-.07-.05-.04-.03-.06v-.14l.08-.06-.09,.02-.05-.03,.03-.06-.07-.02-.07-.02h-.2l-.11,.03-.1,.02-.13,.03-.12,.02-.15,.05-.11,.02h-.08l-.08,.04-.02,.06v.05l.07,.04h.1v.05l-.08,.08,.09-.02h.09l.02,.04-.04,.07-.07,.06v.04l.14-.06,.12-.02,.05,.03v.05l-.1,.05v.04l.12-.03,.08-.04h.09l.05,.03,.11-.06v-.05l.12-.02,.05,.04,.04,.05,.07,.02h.08l-.03,.09-.08,.06,.03,.05-.02,.08h-.14l.05,.07v.13l-.09,.09-.1,.07-.11,.06,.1,.02v.07l.04,.07,.04,.06,.04,.06-.02,.07,.05,.06v.09l.03,.06-.05,.11-.1,.09,.09,.04,.1-.06,.14-.06,.14-.05,.09-.03,.04-.08,.11-.02-.07,.11,.03,.07,.02,.03h0l.02,.03,.12,.02,.11-.07,.06,.07-.12,.03-.13,.05-.04,.08,.03,.05-.07,.1-.12,.04-.09,.08-.12,.12-.06,.11h.11l.08,.02,.14-.03v.1l.07,.02,.06,.05,.13-.12,.13-.1,.07-.14,.02-.11,.13-.06,.11-.08,.12-.1,.1-.11,.12-.08,.12-.08h0l.03-.02,.1-.08,.08-.09,.11-.09,.05-.11,.08-.09,.07-.09,.08-.09h-.15l-.13,.02-.04-.04,.02-.06,.1-.02,.09-.07h.09l-.04,.06,.06,.02,.1-.08-.06-.05-.03-.05,.11-.09,.11-.11,.08-.12,.1-.1,.13-.06,.07,.05h.12l.11-.04,.1-.07,.11-.08,.06-.09,.07-.06,.05-.07,.07,.02,.11-.03,.06-.05h.1l.11,.02,.13-.05,.11-.08,.16-.04,.12-.05,.11-.05,.15-.06h-.1l.11-.07v-.04l-.09-.02-.11-.02,.14-.06,.15-.08h.09l.06-.05v-.05h.25l-.03-.05-.03-.06,.02-.06h.24l.12,.05v.07l.02,.07,.16,.03,.15-.02h.2l.15-.05-.02-.05-.07-.04,.11-.04,.18-.03h.14l.02,.06,.12-.02h.12l.09-.02,.09-.04,.1,.08-.03-.06h.16l.09,.03,.05-.04-.06-.03,.11-.03,.11-.03h.1l-.06,.06h0l-.09,.03-.11,.07-.1,.06-.11,.07-.08,.06v.08l.06,.06,.09,.05,.1,.02h.21l.02-.04h.1l-.07,.08h.23l-.13,.07,.13,.06,.11-.05,.11-.07v-.08h.16l-.02-.05h.21l-.04,.04,.18-.02h.11l.1-.02h.13l.16-.02,.12-.03,.1-.03,.04-.05v-.07l.15,.02h.14l.15,.04,.14,.03,.03-.09,.06-.06-.09-.06v-.07h.12l.04,.09,.06,.06,.08,.03,.03,.05h.1l-.07-.09h.07l.03,.05h.09l.02-.06-.09-.08v-.04l.11,.07,.12,.07-.07,.06-.09,.04-.05,.07,.03,.07h.05l-.03-.07,.04-.04,.09-.02h.1l.12-.02v-.12l.12-.03,.09-.04,.07-.07-.14-.07h.13l.08-.03,.05-.07h.15l.12-.02,.15,.02,.13,.03,.04,.09-.18-.04h-.25l-.06,.04-.1,.02,.03,.08-.08,.05-.1,.05-.08,.05-.08,.05v.07l-.11,.02h0l-.09,.03-.06,.04,.08,.08-.07,.02-.02,.06,.11,.02,.11-.02,.12-.02,.1-.04,.11-.02,.16,.02,.09-.03,.04-.06,.11-.02,.06-.03-.05-.06,.04-.07-.02-.06,.13-.02,.03,.06v.06l.07,.07,.03,.07,.07,.06,.02,.08,.08,.07,.06,.11v.09h.1v-.04l-.02-.07,.04-.04,.02-.05,.1,.02,.07,.03,.07-.02,.04,.05-.12,.04,.11,.04,.14,.03,.06,.07,.09,.06h.1v.07l-.12,.03,.12,.04,.12,.05,.11,.06,.12,.05,.13,.07,.1,.06,.14-.02,.12,.05,.06,.07-.05,.04,.02,.07-.14-.04-.09-.08-.08,.04-.03,.05,.06,.08,.03,.09,.06-.07h.29v-.04h.13l.12,.03v.06l.04,.08,.13,.05,.12,.08,.13,.07,.08-.04,.1-.04,.04,.1v.21l.11,.04,.07-.06-.04-.06h.13l.06,.12-.06,.08-.02,.09h-.13l-.11-.03h-.13l-.07,.07-.04,.06-.12,.04,.06-.07h0v-.09l.02-.08-.02-.07-.02-.08v-.09l-.09-.09-.12-.09-.12-.05h-.12l-.09,.03-.04,.07-.02,.07-.04,.07-.05,.07-.02,.08v.09l.03,.1h-.09v.06l.06,.06v.09l-.05,.08v-.09l-.13-.09-.04,.07-.04,.07v.09l.17,.08h-.12l.12,.09-.17-.02,.06,.06,.1,.05-.06,.06,.08,.08,.13,.08,.06,.11h0v.09h.02l.14,.09,.05,.09,.1,.03,.02-.04,.1,.09-.1-.02,.07,.07-.14-.06,.09,.09,.07,.09,.07-.03,.05,.12,.12,.1-.1-.12-.02-.09-.03-.1,.14,.14,.12,.06,.12,.11,.12,.08,.12,.07,.12,.08,.14,.09,.08,.11,.16,.13,.11,.1,.11,.1-.08,.03,.11,.09,.08,.09v.11l.11,.12,.07,.11,.07,.12h.1l.08,.1,.12,.04,.12,.05h.12l.08,.09,.09,.03v-.09l.07,.1,.11,.07h.07l.09-.07,.04-.08-.05-.13-.08-.1-.1-.14v-.06l-.07-.08,.07-.02,.15,.04,.13,.03h0l.15,.03,.13,.03,.11-.02,.08,.07h.11l.08,.06v-.16l-.08-.03-.11-.11v-.15l-.15-.12-.15-.09-.11-.07-.13-.05-.09-.05-.1-.12-.07-.11-.04,.02-.07-.09-.07-.05h-.09l-.09,.04-.08,.04-.11-.03-.14-.06-.14-.06-.07-.06-.14-.11-.1-.1-.08-.09-.08-.1-.1-.06-.1-.09-.06,.04-.1-.07h-.07l-.06-.07-.1-.06v-.12l-.04-.06,.07-.05,.14,.03,.06,.07,.15,.09,.13,.1,.15,.12,.13,.11,.15,.08,.13,.03h.13l.14,.08,.09,.03,.06-.06,.06-.03,.02-.09-.04-.11-.07-.11-.07-.11-.07-.11-.04-.12,.08-.05-.05-.08,.09-.02v.09l.11,.11,.08,.06,.03,.12v.09l.03,.11,.04,.1,.08,.09,.11,.04h.1v-.05l.14,.04,.13,.04,.08,.08v.06h-.09l-.06,.04,.04,.09,.13,.09,.09,.07,.15,.06,.13,.04,.13,.09,.18,.2,.05,.08v.07h0l-.11-.02,.03,.11,.05,.13,.09,.13,.02,.12,.06,.14-.02,.05-.04,.05-.04-.07h-.09l.06,.08,.02,.1,.03,.07,.06,.1v.07l-.09-.07-.08,.08-.06-.04-.07,.04-.12-.11-.12-.12-.03-.11-.08-.04v.07l-.09-.04-.11-.09-.09-.04v.09l.09,.09v.1l.07,.08,.08,.07,.12,.07,.11,.05,.07-.02,.12,.07h.09l.03,.07h.07l.06,.09,.08,.06-.05,.04-.02,.09,.06,.08-.02,.12,.02,.1,.1,.07,.03-.04,.06,.04,.05,.1-.05,.03-.12-.08v.06l.1,.09,.07,.09,.06,.1,.06,.11,.02,.11,.03,.13,.02,.11,.07,.08,.09,.08,.02,.09,.04,.42-.11-.05-.03,.08,.13,.05,.14,.09-.03,.08-.02,.11-.09-.02-.03,.11v.1l-.02,.09,.11,.09,.07-.02,.04-.07,.09-.03,.06-.08h.05l.1,.02,.05,.06h.15l.11,.03,.12,.13,.12,.13,.08,.1,.11,.14h0l.03,.09v.09l-.07,.07-.07,.11-.03,.16-.09,.06-.07,.09-.04,.13-.06,.1-.12,.06,.06,.14-.04,.1,.02,.09,.15,.07,.07,.11,.07,.06,.11,.09,.07,.11,.07,.13,.1,.14,.03,.13,.08,.13,.08,.04,.04-.07,.08,.13,.09,.11,.05,.12,.04-.12,.06-.06v-.1l.05-.07,.09-.03,.06,.03,.11,.06,.07-.04-.03-.17v-.12l.04-.11,.05-.1,.04-.1,.04-.1-.05-.15-.05-.19h0l-.48-1.06h0v-.24l-.05-.16-.03-.13-.12-.1-.11-.08-.02-.14-.03-.11,.06-.06,.04-.09,.07-.04v-.11l-.05-.13-.03-.14-.02-.12-.06-.1-.03-.09,.03-.06,.04-.02,.03-.08,.11,.07,.09,.03h.09l.07,.04v-.08h.19l.06-.05v-.11h.07l.05-.04,.02-.04,.08,.03,.04-.08,.06,.04,.08,.03,.08,.06,.05,.09,.08,.09,.05,.04v-.06h0l-.05-.07-.05-.1-.08-.07-.04-.11-.08-.07-.04,.04-.1-.11-.07-.09,.03-.04v-.07l.08,.04v-.04l-.06-.08-.08,.02-.05,.04-.05,.04-.05,.06-.03,.05-.07-.09v.14l-.05,.05-.06,.04h-.05l-.09-.05-.09-.03-.06,.04-.06,.02h-.07l-.07-.03-.07-.08h-.06l-.07-.07v-.07l-.05-.12,.02-.06,.05,.06,.08,.04h.05l-.03-.08-.07-.07,.07-.05,.09,.05h.06l.07,.05,.05-.05h.05v-.08l.1-.05,.08-.03,.05-.06,.06-.03,.04-.04,.08,.08,.12,.1,.1,.08,.04-.03h.08l.06,.02,.09,.02h.07v-.12l-.04-.14h.05v-.09l.04-.03-.11-.09v-.03l-.07-.03-.02,.04-.03,.02-.06-.02h-.12l-.12-.1,.07-.02-.02-.08-.06-.06h-.04l-.02-.08-.06-.08v-.07l-.03-.08v-.08h.04l-.04-.1,.09,.11,.05,.04h0l.11,.11-.05-.15,.06,.06,.11,.07h.04l.03,.06-.03,.02,.07,.06v-.06l.02-.05,.07,.06,.03-.04,.07,.1-.03-.09-.03-.09,.06,.07-.03-.1,.03-.05v-.06l-.09-.16-.08-.09-.03-.09v-.09h.03v-.06l-.07-.09-.03-.07-.1-.13-.09-.11v-.08l-.04-.05-.1-.13,.03,.02,.09,.1,.04,.02,.07,.07,.11,.09,.07,.06,.1,.11,.11,.12,.1,.11,.1,.1,.09,.1,.11,.13,.08,.11,.07,.15,.06,.12v.02l.05,.08v.05l-.05-.07,.04,.11,.05,.12,.08,.14,.07,.13,.05,.11v.07l.03,.11v.11l.02,.1,.02,.09,.04,.12-.06-.02,.03,.11v.17l-.06-.05v.19l.03,.12,.04,.13,.08,.18h0l.24,.29h0l.05,.11,.03,.11v.08l-.05,.03-.04,.07-.02,.12v.1l-.05,.05h-.04l-.08-.09-.03,.08-.04,.06-.02,.09-.02,.12v.12l-.04,.06-.05,.06-.07-.05v.09l-.03,.04-.07-.07-.04-.11-.05-.14-.07-.12-.07-.06-.04,.03-.11-.08-.02-.09-.07-.12,.03,.16-.1-.05-.03,.07v.1l.04,.12v.1l-.05,.1,.02,.1-.06,.1,.03,.12v.1l-.05,.03-.04,.08-.03,.1v.09l-.03,.09v.12l-.02,.13-.03,.14h0v.5h0l.04,.11v.17l-.03,.11-.09,.04-.02,.09-.05,.11-.02,.09-.11,.04-.08-.03-.03,.1,.06,.15,.05,.12,.04,.13,.04,.14v.17l-.03,.14v.14l.02,.15v.15l.06,.08,.03,.14v.11l.12,.19,.07,.04,.06,.18,.02,.16v.17l-.03,.16,.02,.16-.05,.17-.09,.15v.16l.05,.15v.12l-.03,.14v.1l.03,.15,.02,.13,.03,.18v.17l-.02,.16v.14l.04,.21v.15l-.02,.12,.04,.14,.04,.14h.09l.1,.04h0l.04,.12-.02,.14,.1,.06,.07,.09,.04,.12,.03,.14v.15l.02,.15,.05,.16-.02,.16v.15l-.06,.14,.08-.02,.07,.08,.05,.12,.02,.13,.03,.14,.08-.02,.08-.02,.06-.1,.05,.14,.08-.04,.07,.04,.06,.05,.08-.02,.08,.02,.06,.03,.04,.1,.03,.08,.04,.07,.09,.02,.08-.04,.08-.04h.07l.1-.04,.08,.02h.06l.07-.03,.08-.02,.07-.06,.05-.07,.05-.17,.07-.14,.04-.16,.06-.14,.06-.14,.04-.11,.05-.1,.08-.12,.05-.09,.06-.06,.03-.14,.04-.13h0l.14-.57v-.15l.05-.16,.03-.12,.03-.11,.03-.14,.04-.12,.03-.07,.04-.02,.03,.1,.03,.11,.04-.05,.02-.11,.02-.13,.02-.13,.02-.11v-.11l.03-.09v.09l.03-.07v.02c0-.12,.02-.24,.02-.36,0-3.44-1.01-6.65-2.73-9.36Zm-6.91-3.75v.06l-.06,.02-.12-.03-.04-.06h-.08v.03l-.04,.02v-.07l.04-.05,.11,.02h.07l.04-.04h.09l.06,.06,.03,.05h-.11Zm.47,.5h-.1l-.06,.05-.07-.03-.09-.07-.03-.07,.05-.03v-.06l.09-.02,.09,.02,.1,.05,.04,.08,.07,.04,.02,.04h-.1Zm3.19,.68l-.07-.1-.1-.09-.1-.12-.07-.11-.13-.13-.09-.12-.06-.09v-.03l.07,.09,.12,.11,.04,.07h.03v-.04l.13,.11,.14,.1,.04,.09,.05,.08,.08,.1v.05h-.05v.04Zm1.29,1.41l-.04,.04-.08-.03h-.07l-.09-.1-.11-.08-.05-.1-.11-.07-.08-.05-.09-.09-.06-.09-.08-.06-.1-.04-.07-.11-.1-.09-.1-.08-.04-.09-.04-.09,.09,.07v-.08l-.07-.1v-.06l.1,.11,.12,.1v-.1l.1,.07,.03-.02-.07-.09-.08-.07-.05-.08-.09-.1-.02-.07-.06-.09-.03-.05h.05v-.08l-.02-.06v-.05l.04-.03,.02-.02v-.05l-.02-.07v-.02h.11l.07,.05,.1,.1,.12,.12,.07,.09,.04,.08,.07,.1,.07,.09,.02,.06,.05,.07v.05l.03,.06h-.05l.05,.11h-.04l.06,.1,.05,.1,.03,.08,.08,.12,.08,.11,.08,.11,.08,.11,.02,.08,.06,.12,.02,.09v.07Zm4.34,7.94l-.02-.05-.02,.02-.03-.05-.03-.02v-.2l.03,.02,.02,.07v-.21l.04,.14v.14l.03,.14h-.02Z"/></g></g></g></g></g></g></g></svg>